G04 Layer: TopSilkscreenLayer*
G04 EasyEDA Pro v2.2.46.11, 2026-04-08 09:24:06*
G04 Gerber Generator version 0.3*
G04 Scale: 100 percent, Rotated: No, Reflected: No*
G04 Dimensions in millimeters*
G04 Leading zeros omitted, absolute positions, 4 integers and 5 decimals*
G04 Generated by one-click*
%FSLAX45Y45*%
%MOMM*%
%ADD10C,0.1524*%
%ADD11C,0.254*%
%ADD12C,0.4*%
%ADD13C,0.2*%
%ADD14C,0.3*%
%ADD15C,0.2530*%
%ADD16C,0.25001*%
G75*


G04 Text Start*
G54D10*
G01X2743797Y-3880968D02*
G01X2740749Y-3874618D01*
G01X2734399Y-3868522D01*
G01X2728303Y-3865474D01*
G01X2715857Y-3865474D01*
G01X2709761Y-3868522D01*
G01X2703411Y-3874618D01*
G01X2700363Y-3880968D01*
G01X2697315Y-3890112D01*
G01X2697315Y-3905606D01*
G01X2700363Y-3915004D01*
G01X2703411Y-3921100D01*
G01X2709761Y-3927450D01*
G01X2715857Y-3930498D01*
G01X2728303Y-3930498D01*
G01X2734399Y-3927450D01*
G01X2740749Y-3921100D01*
G01X2743797Y-3915004D01*
G01X2774023Y-3877920D02*
G01X2780119Y-3874618D01*
G01X2789263Y-3865474D01*
G01X2789263Y-3930498D01*
G01X2041901Y-3800676D02*
G01X2038853Y-3794326D01*
G01X2032503Y-3788230D01*
G01X2026407Y-3785182D01*
G01X2013961Y-3785182D01*
G01X2007865Y-3788230D01*
G01X2001515Y-3794326D01*
G01X1998467Y-3800676D01*
G01X1995419Y-3809820D01*
G01X1995419Y-3825314D01*
G01X1998467Y-3834712D01*
G01X2001515Y-3840808D01*
G01X2007865Y-3847158D01*
G01X2013961Y-3850206D01*
G01X2026407Y-3850206D01*
G01X2032503Y-3847158D01*
G01X2038853Y-3840808D01*
G01X2041901Y-3834712D01*
G01X2075175Y-3800676D02*
G01X2075175Y-3797628D01*
G01X2078223Y-3791278D01*
G01X2081271Y-3788230D01*
G01X2087367Y-3785182D01*
G01X2099813Y-3785182D01*
G01X2106163Y-3788230D01*
G01X2109211Y-3791278D01*
G01X2112259Y-3797628D01*
G01X2112259Y-3803724D01*
G01X2109211Y-3809820D01*
G01X2102861Y-3819218D01*
G01X2072127Y-3850206D01*
G01X2115307Y-3850206D01*
G01X7275318Y-3855212D02*
G01X7275318Y-3920236D01*
G01X7275318Y-3920236D02*
G01X7312402Y-3920236D01*
G01X7342628Y-3855212D02*
G01X7342628Y-3920236D01*
G01X7342628Y-3855212D02*
G01X7382760Y-3855212D01*
G01X7342628Y-3886200D02*
G01X7367266Y-3886200D01*
G01X7342628Y-3920236D02*
G01X7382760Y-3920236D01*
G01X7412986Y-3855212D02*
G01X7412986Y-3920236D01*
G01X7412986Y-3855212D02*
G01X7434576Y-3855212D01*
G01X7443720Y-3858260D01*
G01X7450070Y-3864356D01*
G01X7453118Y-3870706D01*
G01X7456166Y-3879850D01*
G01X7456166Y-3895344D01*
G01X7453118Y-3904742D01*
G01X7450070Y-3910838D01*
G01X7443720Y-3917188D01*
G01X7434576Y-3920236D01*
G01X7412986Y-3920236D01*
G01X7486392Y-3867658D02*
G01X7492488Y-3864356D01*
G01X7501632Y-3855212D01*
G01X7501632Y-3920236D01*
G01X7275318Y-2496312D02*
G01X7275318Y-2561336D01*
G01X7275318Y-2561336D02*
G01X7312402Y-2561336D01*
G01X7342628Y-2496312D02*
G01X7342628Y-2561336D01*
G01X7342628Y-2496312D02*
G01X7382760Y-2496312D01*
G01X7342628Y-2527300D02*
G01X7367266Y-2527300D01*
G01X7342628Y-2561336D02*
G01X7382760Y-2561336D01*
G01X7412986Y-2496312D02*
G01X7412986Y-2561336D01*
G01X7412986Y-2496312D02*
G01X7434576Y-2496312D01*
G01X7443720Y-2499360D01*
G01X7450070Y-2505456D01*
G01X7453118Y-2511806D01*
G01X7456166Y-2520950D01*
G01X7456166Y-2536444D01*
G01X7453118Y-2545842D01*
G01X7450070Y-2551938D01*
G01X7443720Y-2558288D01*
G01X7434576Y-2561336D01*
G01X7412986Y-2561336D01*
G01X7489440Y-2511806D02*
G01X7489440Y-2508758D01*
G01X7492488Y-2502408D01*
G01X7495536Y-2499360D01*
G01X7501632Y-2496312D01*
G01X7514078Y-2496312D01*
G01X7520428Y-2499360D01*
G01X7523476Y-2502408D01*
G01X7526524Y-2508758D01*
G01X7526524Y-2514854D01*
G01X7523476Y-2520950D01*
G01X7517126Y-2530348D01*
G01X7486392Y-2561336D01*
G01X7529572Y-2561336D01*
G01X7313418Y-946912D02*
G01X7313418Y-1011936D01*
G01X7313418Y-1011936D02*
G01X7350502Y-1011936D01*
G01X7380728Y-946912D02*
G01X7380728Y-1011936D01*
G01X7380728Y-946912D02*
G01X7420860Y-946912D01*
G01X7380728Y-977900D02*
G01X7405366Y-977900D01*
G01X7380728Y-1011936D02*
G01X7420860Y-1011936D01*
G01X7451086Y-946912D02*
G01X7451086Y-1011936D01*
G01X7451086Y-946912D02*
G01X7472676Y-946912D01*
G01X7481820Y-949960D01*
G01X7488170Y-956056D01*
G01X7491218Y-962406D01*
G01X7494266Y-971550D01*
G01X7494266Y-987044D01*
G01X7491218Y-996442D01*
G01X7488170Y-1002538D01*
G01X7481820Y-1008888D01*
G01X7472676Y-1011936D01*
G01X7451086Y-1011936D01*
G01X7530588Y-946912D02*
G01X7564624Y-946912D01*
G01X7546082Y-971550D01*
G01X7555226Y-971550D01*
G01X7561576Y-974598D01*
G01X7564624Y-977900D01*
G01X7567672Y-987044D01*
G01X7567672Y-993394D01*
G01X7564624Y-1002538D01*
G01X7558528Y-1008888D01*
G01X7549130Y-1011936D01*
G01X7539732Y-1011936D01*
G01X7530588Y-1008888D01*
G01X7527540Y-1005586D01*
G01X7524492Y-999490D01*
G01X3908238Y-3835875D02*
G01X3914334Y-3832827D01*
G01X3920684Y-3826731D01*
G01X3923732Y-3820381D01*
G01X3926780Y-3811237D01*
G01X3926780Y-3795743D01*
G01X3923732Y-3786345D01*
G01X3920684Y-3780249D01*
G01X3914334Y-3773899D01*
G01X3908238Y-3770851D01*
G01X3895792Y-3770851D01*
G01X3889696Y-3773899D01*
G01X3883346Y-3780249D01*
G01X3880298Y-3786345D01*
G01X3877250Y-3795743D01*
G01X3877250Y-3811237D01*
G01X3880298Y-3820381D01*
G01X3883346Y-3826731D01*
G01X3889696Y-3832827D01*
G01X3895792Y-3835875D01*
G01X3908238Y-3835875D01*
G01X3898840Y-3783297D02*
G01X3880298Y-3764755D01*
G01X3847024Y-3823429D02*
G01X3840928Y-3826731D01*
G01X3831784Y-3835875D01*
G01X3831784Y-3770851D01*
G01X6537742Y-4119683D02*
G01X6537742Y-4184707D01*
G01X6537742Y-4119683D02*
G01X6565682Y-4119683D01*
G01X6574826Y-4122731D01*
G01X6577874Y-4125779D01*
G01X6581176Y-4132129D01*
G01X6581176Y-4138225D01*
G01X6577874Y-4144321D01*
G01X6574826Y-4147369D01*
G01X6565682Y-4150671D01*
G01X6537742Y-4150671D01*
G01X6559332Y-4150671D02*
G01X6581176Y-4184707D01*
G01X6611402Y-4132129D02*
G01X6617498Y-4128827D01*
G01X6626642Y-4119683D01*
G01X6626642Y-4184707D01*
G01X1851386Y-3097609D02*
G01X1916410Y-3097609D01*
G01X1851386Y-3097609D02*
G01X1851386Y-3069669D01*
G01X1854434Y-3060525D01*
G01X1857482Y-3057477D01*
G01X1863832Y-3054175D01*
G01X1869928Y-3054175D01*
G01X1876024Y-3057477D01*
G01X1879072Y-3060525D01*
G01X1882374Y-3069669D01*
G01X1882374Y-3097609D01*
G01X1882374Y-3076019D02*
G01X1916410Y-3054175D01*
G01X1866880Y-3020901D02*
G01X1863832Y-3020901D01*
G01X1857482Y-3017853D01*
G01X1854434Y-3014805D01*
G01X1851386Y-3008709D01*
G01X1851386Y-2996263D01*
G01X1854434Y-2989913D01*
G01X1857482Y-2986865D01*
G01X1863832Y-2983817D01*
G01X1869928Y-2983817D01*
G01X1876024Y-2986865D01*
G01X1885422Y-2993215D01*
G01X1916410Y-3023949D01*
G01X1916410Y-2980769D01*
G01X1546586Y-3084909D02*
G01X1611610Y-3084909D01*
G01X1546586Y-3084909D02*
G01X1546586Y-3056969D01*
G01X1549634Y-3047825D01*
G01X1552682Y-3044777D01*
G01X1559032Y-3041475D01*
G01X1565128Y-3041475D01*
G01X1571224Y-3044777D01*
G01X1574272Y-3047825D01*
G01X1577574Y-3056969D01*
G01X1577574Y-3084909D01*
G01X1577574Y-3063319D02*
G01X1611610Y-3041475D01*
G01X1546586Y-3005153D02*
G01X1546586Y-2971117D01*
G01X1571224Y-2989659D01*
G01X1571224Y-2980515D01*
G01X1574272Y-2974165D01*
G01X1577574Y-2971117D01*
G01X1586718Y-2968069D01*
G01X1593068Y-2968069D01*
G01X1602212Y-2971117D01*
G01X1608562Y-2977213D01*
G01X1611610Y-2986611D01*
G01X1611610Y-2996009D01*
G01X1608562Y-3005153D01*
G01X1605260Y-3008201D01*
G01X1599164Y-3011249D01*
G01X3705586Y-3021409D02*
G01X3770610Y-3021409D01*
G01X3705586Y-3021409D02*
G01X3705586Y-2993469D01*
G01X3708634Y-2984325D01*
G01X3711682Y-2981277D01*
G01X3718032Y-2977975D01*
G01X3724128Y-2977975D01*
G01X3730224Y-2981277D01*
G01X3733272Y-2984325D01*
G01X3736574Y-2993469D01*
G01X3736574Y-3021409D01*
G01X3736574Y-2999819D02*
G01X3770610Y-2977975D01*
G01X3705586Y-2917015D02*
G01X3748766Y-2947749D01*
G01X3748766Y-2901521D01*
G01X3705586Y-2917015D02*
G01X3770610Y-2917015D01*
G01X3554809Y-3101614D02*
G01X3554809Y-3036590D01*
G01X3554809Y-3101614D02*
G01X3526869Y-3101614D01*
G01X3517725Y-3098566D01*
G01X3514677Y-3095518D01*
G01X3511375Y-3089168D01*
G01X3511375Y-3083072D01*
G01X3514677Y-3076976D01*
G01X3517725Y-3073928D01*
G01X3526869Y-3070626D01*
G01X3554809Y-3070626D01*
G01X3533219Y-3070626D02*
G01X3511375Y-3036590D01*
G01X3444065Y-3101614D02*
G01X3475053Y-3101614D01*
G01X3478101Y-3073928D01*
G01X3475053Y-3076976D01*
G01X3465909Y-3080024D01*
G01X3456511Y-3080024D01*
G01X3447113Y-3076976D01*
G01X3441017Y-3070626D01*
G01X3437969Y-3061482D01*
G01X3437969Y-3055132D01*
G01X3441017Y-3045988D01*
G01X3447113Y-3039638D01*
G01X3456511Y-3036590D01*
G01X3465909Y-3036590D01*
G01X3475053Y-3039638D01*
G01X3478101Y-3042940D01*
G01X3481149Y-3049036D01*
G01X3046207Y-447264D02*
G01X3046207Y-493746D01*
G01X3049255Y-502890D01*
G01X3055605Y-509240D01*
G01X3064749Y-512288D01*
G01X3071099Y-512288D01*
G01X3080243Y-509240D01*
G01X3086339Y-502890D01*
G01X3089641Y-493746D01*
G01X3089641Y-447264D01*
G01X3122915Y-462758D02*
G01X3122915Y-459710D01*
G01X3125963Y-453360D01*
G01X3129011Y-450312D01*
G01X3135107Y-447264D01*
G01X3147553Y-447264D01*
G01X3153903Y-450312D01*
G01X3156951Y-453360D01*
G01X3159999Y-459710D01*
G01X3159999Y-465806D01*
G01X3156951Y-471902D01*
G01X3150601Y-481300D01*
G01X3119867Y-512288D01*
G01X3163047Y-512288D01*
G01X2354336Y-2943437D02*
G01X2354336Y-2989919D01*
G01X2357384Y-2999063D01*
G01X2363734Y-3005413D01*
G01X2372878Y-3008461D01*
G01X2379228Y-3008461D01*
G01X2388372Y-3005413D01*
G01X2394468Y-2999063D01*
G01X2397770Y-2989919D01*
G01X2397770Y-2943437D01*
G01X2434092Y-2943437D02*
G01X2468128Y-2943437D01*
G01X2449586Y-2968075D01*
G01X2458730Y-2968075D01*
G01X2465080Y-2971123D01*
G01X2468128Y-2974425D01*
G01X2471176Y-2983569D01*
G01X2471176Y-2989919D01*
G01X2468128Y-2999063D01*
G01X2462032Y-3005413D01*
G01X2452634Y-3008461D01*
G01X2443236Y-3008461D01*
G01X2434092Y-3005413D01*
G01X2431044Y-3002111D01*
G01X2427996Y-2996015D01*
G01X1239954Y-2954363D02*
G01X1193472Y-2954363D01*
G01X1184328Y-2957411D01*
G01X1177978Y-2963761D01*
G01X1174930Y-2972905D01*
G01X1174930Y-2979255D01*
G01X1177978Y-2988399D01*
G01X1184328Y-2994495D01*
G01X1193472Y-2997797D01*
G01X1239954Y-2997797D01*
G01X1239954Y-3058757D02*
G01X1196774Y-3028023D01*
G01X1196774Y-3074251D01*
G01X1239954Y-3058757D02*
G01X1174930Y-3058757D01*
G01X6534845Y-1484168D02*
G01X6488363Y-1484168D01*
G01X6479219Y-1487216D01*
G01X6472869Y-1493566D01*
G01X6469821Y-1502710D01*
G01X6469821Y-1509060D01*
G01X6472869Y-1518204D01*
G01X6479219Y-1524300D01*
G01X6488363Y-1527602D01*
G01X6534845Y-1527602D01*
G01X6534845Y-1594912D02*
G01X6534845Y-1563924D01*
G01X6507159Y-1560876D01*
G01X6510207Y-1563924D01*
G01X6513255Y-1573068D01*
G01X6513255Y-1582466D01*
G01X6510207Y-1591864D01*
G01X6503857Y-1597960D01*
G01X6494713Y-1601008D01*
G01X6488363Y-1601008D01*
G01X6479219Y-1597960D01*
G01X6472869Y-1591864D01*
G01X6469821Y-1582466D01*
G01X6469821Y-1573068D01*
G01X6472869Y-1563924D01*
G01X6476171Y-1560876D01*
G01X6482267Y-1557828D01*
G04 Text End*

G04 PolygonModel Start*
G54D11*
G01X2913355Y-4592320D02*
G01X2745717Y-4592320D01*
G01X2826997Y-4676143D02*
G01X2826997Y-4503420D01*
G36*
G01X3702375Y-4110101D02*
G01X3702375Y-5110099D01*
G01X3775598Y-5036876D01*
G03X3952375Y-4610100I-426776J426776D01*
G03X3775598Y-4183324I-603552J0D01*
G01X3702375Y-4110101D01*
G37*
G54D10*
G01X2010661Y-3899946D02*
G01X2060661Y-3899946D01*
G01X1995419Y-3984424D02*
G01X1995419Y-3915184D01*
G01X2060661Y-3999664D02*
G01X2010661Y-3999664D01*
G01X2154939Y-3999451D02*
G01X2104939Y-3999451D01*
G01X2104939Y-3899738D02*
G01X2154939Y-3899738D01*
G01X2170181Y-3914973D02*
G01X2170181Y-3984216D01*
G01X2154939Y-3899736D02*
G02X2170179Y-3914976I0J-15240D01*
G01X2170179Y-3984216D02*
G02X2154939Y-3999456I-15240J0D01*
G01X2010661Y-3999664D02*
G02X1995421Y-3984424I0J15240D01*
G01X1995421Y-3915184D02*
G02X2010661Y-3899944I15240J0D01*
G01X7375081Y-4017950D02*
G01X7375081Y-3984180D01*
G01X7375081Y-3984180D02*
G01X7890320Y-3984180D01*
G01X7890320Y-3984180D02*
G01X7890320Y-4017950D01*
G01X7375081Y-4465650D02*
G01X7375081Y-4499419D01*
G01X7375081Y-4499419D02*
G01X7890320Y-4499419D01*
G01X7890320Y-4499419D02*
G01X7890320Y-4465650D01*
G01X7375081Y-2659050D02*
G01X7375081Y-2625280D01*
G01X7375081Y-2625280D02*
G01X7890320Y-2625280D01*
G01X7890320Y-2625280D02*
G01X7890320Y-2659050D01*
G01X7375081Y-3106750D02*
G01X7375081Y-3140519D01*
G01X7375081Y-3140519D02*
G01X7890320Y-3140519D01*
G01X7890320Y-3140519D02*
G01X7890320Y-3106750D01*
G01X7413181Y-1109650D02*
G01X7413181Y-1075880D01*
G01X7413181Y-1075880D02*
G01X7928420Y-1075880D01*
G01X7928420Y-1075880D02*
G01X7928420Y-1109650D01*
G01X7413181Y-1557350D02*
G01X7413181Y-1591119D01*
G01X7413181Y-1591119D02*
G01X7928420Y-1591119D01*
G01X7928420Y-1591119D02*
G01X7928420Y-1557350D01*
G01X3699279Y-3721321D02*
G01X3844521Y-3721321D01*
G01X3844521Y-3721321D02*
G01X3844521Y-3618159D01*
G01X3699279Y-3416079D02*
G01X3844521Y-3416079D01*
G01X3844521Y-3416079D02*
G01X3844521Y-3519241D01*
G01X3699279Y-3614240D02*
G01X3699279Y-3523160D01*
G01X6718872Y-4366358D02*
G01X6814759Y-4366358D01*
G01X6814759Y-4366358D02*
G01X6814759Y-4234237D01*
G01X6814759Y-4234237D02*
G01X6718872Y-4234237D01*
G01X6633629Y-4366358D02*
G01X6537742Y-4366358D01*
G01X6537742Y-4366358D02*
G01X6537742Y-4234237D01*
G01X6537742Y-4234237D02*
G01X6633629Y-4234237D01*
G01X2098060Y-2916479D02*
G01X2098060Y-2820591D01*
G01X2098060Y-2820591D02*
G01X1965940Y-2820591D01*
G01X1965940Y-2820591D02*
G01X1965940Y-2916479D01*
G01X2098060Y-3001721D02*
G01X2098060Y-3097609D01*
G01X2098060Y-3097609D02*
G01X1965940Y-3097609D01*
G01X1965940Y-3097609D02*
G01X1965940Y-3001721D01*
G01X1793260Y-2903779D02*
G01X1793260Y-2807891D01*
G01X1793260Y-2807891D02*
G01X1661140Y-2807891D01*
G01X1661140Y-2807891D02*
G01X1661140Y-2903779D01*
G01X1793260Y-2989021D02*
G01X1793260Y-3084909D01*
G01X1793260Y-3084909D02*
G01X1661140Y-3084909D01*
G01X1661140Y-3084909D02*
G01X1661140Y-2989021D01*
G01X3952260Y-2840279D02*
G01X3952260Y-2744391D01*
G01X3952260Y-2744391D02*
G01X3820140Y-2744391D01*
G01X3820140Y-2744391D02*
G01X3820140Y-2840279D01*
G01X3952260Y-2925521D02*
G01X3952260Y-3021409D01*
G01X3952260Y-3021409D02*
G01X3820140Y-3021409D01*
G01X3820140Y-3021409D02*
G01X3820140Y-2925521D01*
G01X3373679Y-2854940D02*
G01X3277791Y-2854940D01*
G01X3277791Y-2854940D02*
G01X3277791Y-2987060D01*
G01X3277791Y-2987060D02*
G01X3373679Y-2987060D01*
G01X3458921Y-2854940D02*
G01X3554809Y-2854940D01*
G01X3554809Y-2854940D02*
G01X3554809Y-2987060D01*
G01X3554809Y-2987060D02*
G01X3458921Y-2987060D01*
G54D11*
G01X3051287Y-566898D02*
G01X4111488Y-566898D01*
G01X4111488Y-566898D02*
G01X4111488Y-1046706D01*
G01X4111488Y-1046706D02*
G01X3051287Y-1046706D01*
G01X3051287Y-1046706D02*
G01X3051287Y-567406D01*
G01X3051287Y-567406D02*
G01X3051287Y-566898D01*
G01X4111384Y-626814D02*
G01X3051391Y-626814D01*
G54D12*
G01X3304390Y-1109304D02*
G03X3304517Y-1149304I127J-20000D01*
G03X3304644Y-1109304I0J20000D01*
G54D13*
G01X2441943Y-3610621D02*
G01X2376945Y-3610621D01*
G01X2376945Y-3610621D02*
G01X2376945Y-3545623D01*
G01X2441943Y-3080625D02*
G01X2376945Y-3080625D01*
G01X2376945Y-3080625D02*
G01X2376945Y-3145624D01*
G01X2906941Y-3145624D02*
G01X2906941Y-3080625D01*
G01X2906941Y-3080625D02*
G01X2841943Y-3080625D01*
G01X2841943Y-3610621D02*
G01X2906941Y-3610621D01*
G01X2906941Y-3610621D02*
G01X2906941Y-3545623D01*
G54D14*
G01X2396833Y-3645597D02*
G03X2396960Y-3675599I127J-15001D01*
G03X2397087Y-3645597I0J15001D01*
G54D11*
G01X709262Y-3886200D02*
G01X902040Y-3886200D01*
G01X492026Y-2971800D02*
G01X331048Y-2971800D01*
G01X331048Y-2971800D02*
G01X331048Y-3886200D01*
G01X331048Y-3886200D02*
G01X492026Y-3886200D01*
G01X902015Y-2971800D02*
G01X709262Y-2971800D01*
G01X6322908Y-1489248D02*
G01X6322908Y-2135838D01*
G01X4522907Y-1489248D02*
G01X4522907Y-2134245D01*
G01X6322908Y-1489248D02*
G01X4522907Y-1489248D01*
G01X6322908Y-2117644D02*
G01X4522907Y-2117644D01*
G01X6324608Y-2168530D02*
G01X6324608Y-2117644D01*
G01X6062523Y-4039245D02*
G01X6324608Y-4039245D01*
G01X6324608Y-4039245D02*
G01X6324608Y-3955766D01*
G01X4522907Y-3955766D02*
G01X4522907Y-4039245D01*
G01X4522907Y-4039245D02*
G01X4783295Y-4039245D01*
G01X4522907Y-2117644D02*
G01X4522907Y-2168530D01*

G04 Circle Start*
G01X2702395Y-4610100D02*
G03X3952380Y-4610100I624992J0D01*
G03X2702395Y-4610100I-624992J0D01*
G54D16*
G01X7280199Y-4081805D02*
G03X7305192Y-4081805I12497J0D01*
G03X7280199Y-4081805I-12497J0D01*
G01X7280199Y-2722905D02*
G03X7305192Y-2722905I12497J0D01*
G03X7280199Y-2722905I-12497J0D01*
G01X7318299Y-1173505D02*
G03X7343292Y-1173505I12497J0D01*
G03X7318299Y-1173505I-12497J0D01*
G04 Circle End*

M02*

