G04 Layer: TopPasteMaskLayer*
G04 EasyEDA Pro v2.2.46.11, 2026-04-08 09:24:06*
G04 Gerber Generator version 0.3*
G04 Scale: 100 percent, Rotated: No, Reflected: No*
G04 Dimensions in millimeters*
G04 Leading zeros omitted, absolute positions, 4 integers and 5 decimals*
G04 Generated by one-click*
%FSLAX45Y45*%
%MOMM*%
%ADD10R,0.5X0.54*%
%ADD11R,1.5X1.0*%
%ADD12R,1.25001X0.7*%
%ADD13R,2.1X0.95001*%
%ADD14R,0.95001X2.1*%
%ADD15R,0.9037X0.9*%
%ADD16R,0.9X0.9*%
G75*


G04 PolygonModel Start*
G36*
G01X6795752Y-4255299D02*
G01X6715752Y-4255299D01*
G01X6710751Y-4260300D01*
G01X6710751Y-4283097D01*
G01X6747751Y-4283097D01*
G01X6747751Y-4316096D01*
G01X6710751Y-4316096D01*
G01X6710751Y-4340300D01*
G01X6715752Y-4345299D01*
G01X6795752Y-4345299D01*
G01X6800751Y-4340300D01*
G01X6800751Y-4260300D01*
G01X6795752Y-4255299D01*
G37*
G36*
G01X6556748Y-4345296D02*
G01X6636748Y-4345296D01*
G01X6641749Y-4340295D01*
G01X6641749Y-4317498D01*
G01X6604749Y-4317498D01*
G01X6604749Y-4284499D01*
G01X6641749Y-4284499D01*
G01X6641749Y-4260295D01*
G01X6636748Y-4255296D01*
G01X6556748Y-4255296D01*
G01X6551750Y-4260295D01*
G01X6551750Y-4340295D01*
G01X6556748Y-4345296D01*
G37*
G36*
G01X1987001Y-2839598D02*
G01X1987001Y-2919598D01*
G01X1992003Y-2924599D01*
G01X2014799Y-2924599D01*
G01X2014799Y-2887599D01*
G01X2047799Y-2887599D01*
G01X2047799Y-2924599D01*
G01X2072002Y-2924599D01*
G01X2077001Y-2919598D01*
G01X2077001Y-2839598D01*
G01X2072002Y-2834599D01*
G01X1992003Y-2834599D01*
G01X1987001Y-2839598D01*
G37*
G36*
G01X2076999Y-3078602D02*
G01X2076999Y-2998602D01*
G01X2071997Y-2993601D01*
G01X2049201Y-2993601D01*
G01X2049201Y-3030601D01*
G01X2016201Y-3030601D01*
G01X2016201Y-2993601D01*
G01X1991998Y-2993601D01*
G01X1986999Y-2998602D01*
G01X1986999Y-3078602D01*
G01X1991998Y-3083601D01*
G01X2071997Y-3083601D01*
G01X2076999Y-3078602D01*
G37*
G36*
G01X1682201Y-2826898D02*
G01X1682201Y-2906898D01*
G01X1687203Y-2911899D01*
G01X1709999Y-2911899D01*
G01X1709999Y-2874899D01*
G01X1742999Y-2874899D01*
G01X1742999Y-2911899D01*
G01X1767202Y-2911899D01*
G01X1772201Y-2906898D01*
G01X1772201Y-2826898D01*
G01X1767202Y-2821899D01*
G01X1687203Y-2821899D01*
G01X1682201Y-2826898D01*
G37*
G36*
G01X1772199Y-3065902D02*
G01X1772199Y-2985902D01*
G01X1767197Y-2980901D01*
G01X1744401Y-2980901D01*
G01X1744401Y-3017901D01*
G01X1711401Y-3017901D01*
G01X1711401Y-2980901D01*
G01X1687198Y-2980901D01*
G01X1682199Y-2985902D01*
G01X1682199Y-3065902D01*
G01X1687198Y-3070901D01*
G01X1767197Y-3070901D01*
G01X1772199Y-3065902D01*
G37*
G36*
G01X3841201Y-2763398D02*
G01X3841201Y-2843398D01*
G01X3846203Y-2848399D01*
G01X3868999Y-2848399D01*
G01X3868999Y-2811399D01*
G01X3901999Y-2811399D01*
G01X3901999Y-2848399D01*
G01X3926202Y-2848399D01*
G01X3931201Y-2843398D01*
G01X3931201Y-2763398D01*
G01X3926202Y-2758399D01*
G01X3846203Y-2758399D01*
G01X3841201Y-2763398D01*
G37*
G36*
G01X3931199Y-3002402D02*
G01X3931199Y-2922402D01*
G01X3926197Y-2917401D01*
G01X3903401Y-2917401D01*
G01X3903401Y-2954401D01*
G01X3870401Y-2954401D01*
G01X3870401Y-2917401D01*
G01X3846198Y-2917401D01*
G01X3841199Y-2922402D01*
G01X3841199Y-3002402D01*
G01X3846198Y-3007401D01*
G01X3926197Y-3007401D01*
G01X3931199Y-3002402D01*
G37*
G36*
G01X3296798Y-2965999D02*
G01X3376798Y-2965999D01*
G01X3381799Y-2960997D01*
G01X3381799Y-2938201D01*
G01X3344799Y-2938201D01*
G01X3344799Y-2905201D01*
G01X3381799Y-2905201D01*
G01X3381799Y-2880998D01*
G01X3376798Y-2875999D01*
G01X3296798Y-2875999D01*
G01X3291799Y-2880998D01*
G01X3291799Y-2960997D01*
G01X3296798Y-2965999D01*
G37*
G36*
G01X3535802Y-2876001D02*
G01X3455802Y-2876001D01*
G01X3450801Y-2881003D01*
G01X3450801Y-2903799D01*
G01X3487801Y-2903799D01*
G01X3487801Y-2936799D01*
G01X3450801Y-2936799D01*
G01X3450801Y-2961002D01*
G01X3455802Y-2966001D01*
G01X3535802Y-2966001D01*
G01X3540801Y-2961002D01*
G01X3540801Y-2881003D01*
G01X3535802Y-2876001D01*
G37*
G36*
G01X2593068Y-3050668D02*
G01X2592299Y-3050625D01*
G01X2591526Y-3050625D01*
G01X2590757Y-3050668D01*
G01X2589990Y-3050752D01*
G01X2589228Y-3050879D01*
G01X2588476Y-3051049D01*
G01X2587734Y-3051258D01*
G01X2587003Y-3051509D01*
G01X2586289Y-3051799D01*
G01X2585590Y-3052129D01*
G01X2584912Y-3052495D01*
G01X2584254Y-3052901D01*
G01X2583622Y-3053340D01*
G01X2583012Y-3053813D01*
G01X2582431Y-3054321D01*
G01X2581877Y-3054859D01*
G01X2581354Y-3055426D01*
G01X2580864Y-3056020D01*
G01X2580406Y-3056642D01*
G01X2579985Y-3057290D01*
G01X2579599Y-3057958D01*
G01X2579251Y-3058646D01*
G01X2578941Y-3059353D01*
G01X2578672Y-3060074D01*
G01X2578440Y-3060810D01*
G01X2578250Y-3061560D01*
G01X2578103Y-3062317D01*
G01X2577996Y-3063081D01*
G01X2577932Y-3063848D01*
G01X2577912Y-3064620D01*
G01X2577912Y-3126617D01*
G01X2577932Y-3127389D01*
G01X2577996Y-3128156D01*
G01X2578103Y-3128921D01*
G01X2578250Y-3129678D01*
G01X2578440Y-3130427D01*
G01X2578672Y-3131163D01*
G01X2578941Y-3131885D01*
G01X2579251Y-3132591D01*
G01X2579599Y-3133279D01*
G01X2579985Y-3133947D01*
G01X2580406Y-3134595D01*
G01X2580864Y-3135217D01*
G01X2581354Y-3135812D01*
G01X2581877Y-3136378D01*
G01X2582431Y-3136917D01*
G01X2583012Y-3137425D01*
G01X2583622Y-3137897D01*
G01X2584254Y-3138336D01*
G01X2584912Y-3138743D01*
G01X2585590Y-3139109D01*
G01X2586289Y-3139439D01*
G01X2587003Y-3139728D01*
G01X2587734Y-3139980D01*
G01X2588476Y-3140188D01*
G01X2589228Y-3140358D01*
G01X2589990Y-3140485D01*
G01X2590757Y-3140569D01*
G01X2591526Y-3140612D01*
G01X2592299Y-3140612D01*
G01X2593068Y-3140569D01*
G01X2593835Y-3140485D01*
G01X2594597Y-3140358D01*
G01X2595349Y-3140188D01*
G01X2596091Y-3139980D01*
G01X2596822Y-3139728D01*
G01X2597536Y-3139439D01*
G01X2598235Y-3139109D01*
G01X2598913Y-3138743D01*
G01X2599571Y-3138336D01*
G01X2600203Y-3137897D01*
G01X2600813Y-3137425D01*
G01X2601394Y-3136917D01*
G01X2601948Y-3136378D01*
G01X2602471Y-3135812D01*
G01X2602962Y-3135217D01*
G01X2603419Y-3134595D01*
G01X2603840Y-3133947D01*
G01X2604226Y-3133279D01*
G01X2604574Y-3132591D01*
G01X2604884Y-3131885D01*
G01X2605154Y-3131163D01*
G01X2605385Y-3130427D01*
G01X2605575Y-3129678D01*
G01X2605723Y-3128921D01*
G01X2605829Y-3128156D01*
G01X2605893Y-3127389D01*
G01X2605913Y-3126617D01*
G01X2605913Y-3064620D01*
G01X2605893Y-3063848D01*
G01X2605829Y-3063081D01*
G01X2605723Y-3062317D01*
G01X2605575Y-3061560D01*
G01X2605385Y-3060810D01*
G01X2605154Y-3060074D01*
G01X2604884Y-3059353D01*
G01X2604574Y-3058646D01*
G01X2604226Y-3057958D01*
G01X2603840Y-3057290D01*
G01X2603419Y-3056642D01*
G01X2602962Y-3056020D01*
G01X2602471Y-3055426D01*
G01X2601948Y-3054859D01*
G01X2601394Y-3054321D01*
G01X2600813Y-3053813D01*
G01X2600203Y-3053340D01*
G01X2599571Y-3052901D01*
G01X2598913Y-3052495D01*
G01X2598235Y-3052129D01*
G01X2597536Y-3051799D01*
G01X2596822Y-3051509D01*
G01X2596091Y-3051258D01*
G01X2595349Y-3051049D01*
G01X2594597Y-3050879D01*
G01X2593835Y-3050752D01*
G01X2593068Y-3050668D01*
G37*
G36*
G01X2691602Y-3050625D02*
G01X2690833Y-3050668D01*
G01X2690066Y-3050752D01*
G01X2689304Y-3050879D01*
G01X2688552Y-3051049D01*
G01X2687810Y-3051258D01*
G01X2687079Y-3051509D01*
G01X2686365Y-3051799D01*
G01X2685666Y-3052129D01*
G01X2684988Y-3052495D01*
G01X2684330Y-3052901D01*
G01X2683698Y-3053340D01*
G01X2683088Y-3053813D01*
G01X2682507Y-3054321D01*
G01X2681953Y-3054859D01*
G01X2681430Y-3055426D01*
G01X2680940Y-3056020D01*
G01X2680482Y-3056642D01*
G01X2680061Y-3057290D01*
G01X2679675Y-3057958D01*
G01X2679327Y-3058646D01*
G01X2679017Y-3059353D01*
G01X2678748Y-3060074D01*
G01X2678516Y-3060810D01*
G01X2678326Y-3061560D01*
G01X2678179Y-3062317D01*
G01X2678072Y-3063081D01*
G01X2678008Y-3063848D01*
G01X2677988Y-3064620D01*
G01X2677988Y-3126617D01*
G01X2678008Y-3127389D01*
G01X2678072Y-3128156D01*
G01X2678179Y-3128921D01*
G01X2678326Y-3129678D01*
G01X2678516Y-3130427D01*
G01X2678748Y-3131163D01*
G01X2679017Y-3131885D01*
G01X2679327Y-3132591D01*
G01X2679675Y-3133279D01*
G01X2680061Y-3133947D01*
G01X2680482Y-3134595D01*
G01X2680940Y-3135217D01*
G01X2681430Y-3135812D01*
G01X2681953Y-3136378D01*
G01X2682507Y-3136917D01*
G01X2683088Y-3137425D01*
G01X2683698Y-3137897D01*
G01X2684330Y-3138336D01*
G01X2684988Y-3138743D01*
G01X2685666Y-3139109D01*
G01X2686365Y-3139439D01*
G01X2687079Y-3139728D01*
G01X2687810Y-3139980D01*
G01X2688552Y-3140188D01*
G01X2689304Y-3140358D01*
G01X2690066Y-3140485D01*
G01X2690833Y-3140569D01*
G01X2691602Y-3140612D01*
G01X2692375Y-3140612D01*
G01X2693144Y-3140569D01*
G01X2693911Y-3140485D01*
G01X2694673Y-3140358D01*
G01X2695425Y-3140188D01*
G01X2696167Y-3139980D01*
G01X2696898Y-3139728D01*
G01X2697612Y-3139439D01*
G01X2698311Y-3139109D01*
G01X2698989Y-3138743D01*
G01X2699647Y-3138336D01*
G01X2700279Y-3137897D01*
G01X2700889Y-3137425D01*
G01X2701470Y-3136917D01*
G01X2702024Y-3136378D01*
G01X2702547Y-3135812D01*
G01X2703038Y-3135217D01*
G01X2703495Y-3134595D01*
G01X2703916Y-3133947D01*
G01X2704302Y-3133279D01*
G01X2704650Y-3132591D01*
G01X2704960Y-3131885D01*
G01X2705230Y-3131163D01*
G01X2705461Y-3130427D01*
G01X2705651Y-3129678D01*
G01X2705799Y-3128921D01*
G01X2705905Y-3128156D01*
G01X2705969Y-3127389D01*
G01X2705989Y-3126617D01*
G01X2705989Y-3064620D01*
G01X2705969Y-3063848D01*
G01X2705905Y-3063081D01*
G01X2705799Y-3062317D01*
G01X2705651Y-3061560D01*
G01X2705461Y-3060810D01*
G01X2705230Y-3060074D01*
G01X2704960Y-3059353D01*
G01X2704650Y-3058646D01*
G01X2704302Y-3057958D01*
G01X2703916Y-3057290D01*
G01X2703495Y-3056642D01*
G01X2703038Y-3056020D01*
G01X2702547Y-3055426D01*
G01X2702024Y-3054859D01*
G01X2701470Y-3054321D01*
G01X2700889Y-3053813D01*
G01X2700279Y-3053340D01*
G01X2699647Y-3052901D01*
G01X2698989Y-3052495D01*
G01X2698311Y-3052129D01*
G01X2697612Y-3051799D01*
G01X2696898Y-3051509D01*
G01X2696167Y-3051258D01*
G01X2695425Y-3051049D01*
G01X2694673Y-3050879D01*
G01X2693911Y-3050752D01*
G01X2693144Y-3050668D01*
G01X2692375Y-3050625D01*
G01X2691602Y-3050625D01*
G37*
G36*
G01X2541488Y-3050625D02*
G01X2540719Y-3050668D01*
G01X2539952Y-3050752D01*
G01X2539190Y-3050879D01*
G01X2538438Y-3051049D01*
G01X2537696Y-3051258D01*
G01X2536965Y-3051509D01*
G01X2536251Y-3051799D01*
G01X2535552Y-3052129D01*
G01X2534874Y-3052495D01*
G01X2534216Y-3052901D01*
G01X2533584Y-3053340D01*
G01X2532974Y-3053813D01*
G01X2532393Y-3054321D01*
G01X2531839Y-3054859D01*
G01X2531316Y-3055426D01*
G01X2530826Y-3056020D01*
G01X2530368Y-3056642D01*
G01X2529947Y-3057290D01*
G01X2529561Y-3057958D01*
G01X2529213Y-3058646D01*
G01X2528903Y-3059353D01*
G01X2528634Y-3060074D01*
G01X2528402Y-3060810D01*
G01X2528212Y-3061560D01*
G01X2528065Y-3062317D01*
G01X2527958Y-3063081D01*
G01X2527894Y-3063848D01*
G01X2527874Y-3064620D01*
G01X2527874Y-3126617D01*
G01X2527894Y-3127389D01*
G01X2527958Y-3128156D01*
G01X2528065Y-3128921D01*
G01X2528212Y-3129678D01*
G01X2528402Y-3130427D01*
G01X2528634Y-3131163D01*
G01X2528903Y-3131885D01*
G01X2529213Y-3132591D01*
G01X2529561Y-3133279D01*
G01X2529947Y-3133947D01*
G01X2530368Y-3134595D01*
G01X2530826Y-3135217D01*
G01X2531316Y-3135812D01*
G01X2531839Y-3136378D01*
G01X2532393Y-3136917D01*
G01X2532974Y-3137425D01*
G01X2533584Y-3137897D01*
G01X2534216Y-3138336D01*
G01X2534874Y-3138743D01*
G01X2535552Y-3139109D01*
G01X2536251Y-3139439D01*
G01X2536965Y-3139728D01*
G01X2537696Y-3139980D01*
G01X2538438Y-3140188D01*
G01X2539190Y-3140358D01*
G01X2539952Y-3140485D01*
G01X2540719Y-3140569D01*
G01X2541488Y-3140612D01*
G01X2542261Y-3140612D01*
G01X2543030Y-3140569D01*
G01X2543797Y-3140485D01*
G01X2544559Y-3140358D01*
G01X2545311Y-3140188D01*
G01X2546053Y-3139980D01*
G01X2546784Y-3139728D01*
G01X2547498Y-3139439D01*
G01X2548197Y-3139109D01*
G01X2548875Y-3138743D01*
G01X2549533Y-3138336D01*
G01X2550165Y-3137897D01*
G01X2550775Y-3137425D01*
G01X2551356Y-3136917D01*
G01X2551910Y-3136378D01*
G01X2552433Y-3135812D01*
G01X2552924Y-3135217D01*
G01X2553381Y-3134595D01*
G01X2553802Y-3133947D01*
G01X2554188Y-3133279D01*
G01X2554536Y-3132591D01*
G01X2554846Y-3131885D01*
G01X2555116Y-3131163D01*
G01X2555347Y-3130427D01*
G01X2555537Y-3129678D01*
G01X2555685Y-3128921D01*
G01X2555791Y-3128156D01*
G01X2555855Y-3127389D01*
G01X2555875Y-3126617D01*
G01X2555875Y-3064620D01*
G01X2555855Y-3063848D01*
G01X2555791Y-3063081D01*
G01X2555685Y-3062317D01*
G01X2555537Y-3061560D01*
G01X2555347Y-3060810D01*
G01X2555116Y-3060074D01*
G01X2554846Y-3059353D01*
G01X2554536Y-3058646D01*
G01X2554188Y-3057958D01*
G01X2553802Y-3057290D01*
G01X2553381Y-3056642D01*
G01X2552924Y-3056020D01*
G01X2552433Y-3055426D01*
G01X2551910Y-3054859D01*
G01X2551356Y-3054321D01*
G01X2550775Y-3053813D01*
G01X2550165Y-3053340D01*
G01X2549533Y-3052901D01*
G01X2548875Y-3052495D01*
G01X2548197Y-3052129D01*
G01X2547498Y-3051799D01*
G01X2546784Y-3051509D01*
G01X2546053Y-3051258D01*
G01X2545311Y-3051049D01*
G01X2544559Y-3050879D01*
G01X2543797Y-3050752D01*
G01X2543030Y-3050668D01*
G01X2542261Y-3050625D01*
G01X2541488Y-3050625D01*
G37*
G36*
G01X2741640Y-3050625D02*
G01X2740871Y-3050668D01*
G01X2740104Y-3050752D01*
G01X2739342Y-3050879D01*
G01X2738590Y-3051049D01*
G01X2737848Y-3051258D01*
G01X2737117Y-3051509D01*
G01X2736403Y-3051799D01*
G01X2735704Y-3052129D01*
G01X2735026Y-3052495D01*
G01X2734368Y-3052901D01*
G01X2733736Y-3053340D01*
G01X2733126Y-3053813D01*
G01X2732545Y-3054321D01*
G01X2731991Y-3054859D01*
G01X2731468Y-3055426D01*
G01X2730978Y-3056020D01*
G01X2730520Y-3056642D01*
G01X2730099Y-3057290D01*
G01X2729713Y-3057958D01*
G01X2729365Y-3058646D01*
G01X2729055Y-3059353D01*
G01X2728786Y-3060074D01*
G01X2728554Y-3060810D01*
G01X2728364Y-3061560D01*
G01X2728217Y-3062317D01*
G01X2728110Y-3063081D01*
G01X2728046Y-3063848D01*
G01X2728026Y-3064620D01*
G01X2728026Y-3126617D01*
G01X2728046Y-3127389D01*
G01X2728110Y-3128156D01*
G01X2728217Y-3128921D01*
G01X2728364Y-3129678D01*
G01X2728554Y-3130427D01*
G01X2728786Y-3131163D01*
G01X2729055Y-3131885D01*
G01X2729365Y-3132591D01*
G01X2729713Y-3133279D01*
G01X2730099Y-3133947D01*
G01X2730520Y-3134595D01*
G01X2730978Y-3135217D01*
G01X2731468Y-3135812D01*
G01X2731991Y-3136378D01*
G01X2732545Y-3136917D01*
G01X2733126Y-3137425D01*
G01X2733736Y-3137897D01*
G01X2734368Y-3138336D01*
G01X2735026Y-3138743D01*
G01X2735704Y-3139109D01*
G01X2736403Y-3139439D01*
G01X2737117Y-3139728D01*
G01X2737848Y-3139980D01*
G01X2738590Y-3140188D01*
G01X2739342Y-3140358D01*
G01X2740104Y-3140485D01*
G01X2740871Y-3140569D01*
G01X2741640Y-3140612D01*
G01X2742413Y-3140612D01*
G01X2743182Y-3140569D01*
G01X2743949Y-3140485D01*
G01X2744711Y-3140358D01*
G01X2745463Y-3140188D01*
G01X2746205Y-3139980D01*
G01X2746936Y-3139728D01*
G01X2747650Y-3139439D01*
G01X2748349Y-3139109D01*
G01X2749027Y-3138743D01*
G01X2749685Y-3138336D01*
G01X2750317Y-3137897D01*
G01X2750927Y-3137425D01*
G01X2751508Y-3136917D01*
G01X2752062Y-3136378D01*
G01X2752585Y-3135812D01*
G01X2753076Y-3135217D01*
G01X2753533Y-3134595D01*
G01X2753954Y-3133947D01*
G01X2754340Y-3133279D01*
G01X2754688Y-3132591D01*
G01X2754998Y-3131885D01*
G01X2755268Y-3131163D01*
G01X2755499Y-3130427D01*
G01X2755689Y-3129678D01*
G01X2755837Y-3128921D01*
G01X2755943Y-3128156D01*
G01X2756007Y-3127389D01*
G01X2756027Y-3126617D01*
G01X2756027Y-3064620D01*
G01X2756007Y-3063848D01*
G01X2755943Y-3063081D01*
G01X2755837Y-3062317D01*
G01X2755689Y-3061560D01*
G01X2755499Y-3060810D01*
G01X2755268Y-3060074D01*
G01X2754998Y-3059353D01*
G01X2754688Y-3058646D01*
G01X2754340Y-3057958D01*
G01X2753954Y-3057290D01*
G01X2753533Y-3056642D01*
G01X2753076Y-3056020D01*
G01X2752585Y-3055426D01*
G01X2752062Y-3054859D01*
G01X2751508Y-3054321D01*
G01X2750927Y-3053813D01*
G01X2750317Y-3053340D01*
G01X2749685Y-3052901D01*
G01X2749027Y-3052495D01*
G01X2748349Y-3052129D01*
G01X2747650Y-3051799D01*
G01X2746936Y-3051509D01*
G01X2746205Y-3051258D01*
G01X2745463Y-3051049D01*
G01X2744711Y-3050879D01*
G01X2743949Y-3050752D01*
G01X2743182Y-3050668D01*
G01X2742413Y-3050625D01*
G01X2741640Y-3050625D01*
G37*
G36*
G01X2643106Y-3050668D02*
G01X2642337Y-3050625D01*
G01X2641564Y-3050625D01*
G01X2640795Y-3050668D01*
G01X2640028Y-3050752D01*
G01X2639266Y-3050879D01*
G01X2638514Y-3051049D01*
G01X2637772Y-3051258D01*
G01X2637041Y-3051509D01*
G01X2636327Y-3051799D01*
G01X2635628Y-3052129D01*
G01X2634950Y-3052495D01*
G01X2634292Y-3052901D01*
G01X2633660Y-3053340D01*
G01X2633050Y-3053813D01*
G01X2632469Y-3054321D01*
G01X2631915Y-3054859D01*
G01X2631392Y-3055426D01*
G01X2630902Y-3056020D01*
G01X2630444Y-3056642D01*
G01X2630023Y-3057290D01*
G01X2629637Y-3057958D01*
G01X2629289Y-3058646D01*
G01X2628979Y-3059353D01*
G01X2628710Y-3060074D01*
G01X2628478Y-3060810D01*
G01X2628288Y-3061560D01*
G01X2628141Y-3062317D01*
G01X2628034Y-3063081D01*
G01X2627970Y-3063848D01*
G01X2627950Y-3064620D01*
G01X2627950Y-3126617D01*
G01X2627970Y-3127389D01*
G01X2628034Y-3128156D01*
G01X2628141Y-3128921D01*
G01X2628288Y-3129678D01*
G01X2628478Y-3130427D01*
G01X2628710Y-3131163D01*
G01X2628979Y-3131885D01*
G01X2629289Y-3132591D01*
G01X2629637Y-3133279D01*
G01X2630023Y-3133947D01*
G01X2630444Y-3134595D01*
G01X2630902Y-3135217D01*
G01X2631392Y-3135812D01*
G01X2631915Y-3136378D01*
G01X2632469Y-3136917D01*
G01X2633050Y-3137425D01*
G01X2633660Y-3137897D01*
G01X2634292Y-3138336D01*
G01X2634950Y-3138743D01*
G01X2635628Y-3139109D01*
G01X2636327Y-3139439D01*
G01X2637041Y-3139728D01*
G01X2637772Y-3139980D01*
G01X2638514Y-3140188D01*
G01X2639266Y-3140358D01*
G01X2640028Y-3140485D01*
G01X2640795Y-3140569D01*
G01X2641564Y-3140612D01*
G01X2642337Y-3140612D01*
G01X2643106Y-3140569D01*
G01X2643873Y-3140485D01*
G01X2644635Y-3140358D01*
G01X2645387Y-3140188D01*
G01X2646129Y-3139980D01*
G01X2646860Y-3139728D01*
G01X2647574Y-3139439D01*
G01X2648273Y-3139109D01*
G01X2648951Y-3138743D01*
G01X2649609Y-3138336D01*
G01X2650241Y-3137897D01*
G01X2650851Y-3137425D01*
G01X2651432Y-3136917D01*
G01X2651986Y-3136378D01*
G01X2652509Y-3135812D01*
G01X2653000Y-3135217D01*
G01X2653457Y-3134595D01*
G01X2653878Y-3133947D01*
G01X2654264Y-3133279D01*
G01X2654612Y-3132591D01*
G01X2654922Y-3131885D01*
G01X2655192Y-3131163D01*
G01X2655423Y-3130427D01*
G01X2655613Y-3129678D01*
G01X2655761Y-3128921D01*
G01X2655867Y-3128156D01*
G01X2655931Y-3127389D01*
G01X2655951Y-3126617D01*
G01X2655951Y-3064620D01*
G01X2655931Y-3063848D01*
G01X2655867Y-3063081D01*
G01X2655761Y-3062317D01*
G01X2655613Y-3061560D01*
G01X2655423Y-3060810D01*
G01X2655192Y-3060074D01*
G01X2654922Y-3059353D01*
G01X2654612Y-3058646D01*
G01X2654264Y-3057958D01*
G01X2653878Y-3057290D01*
G01X2653457Y-3056642D01*
G01X2653000Y-3056020D01*
G01X2652509Y-3055426D01*
G01X2651986Y-3054859D01*
G01X2651432Y-3054321D01*
G01X2650851Y-3053813D01*
G01X2650241Y-3053340D01*
G01X2649609Y-3052901D01*
G01X2648951Y-3052495D01*
G01X2648273Y-3052129D01*
G01X2647574Y-3051799D01*
G01X2646860Y-3051509D01*
G01X2646129Y-3051258D01*
G01X2645387Y-3051049D01*
G01X2644635Y-3050879D01*
G01X2643873Y-3050752D01*
G01X2643106Y-3050668D01*
G37*
G36*
G01X2491450Y-3050625D02*
G01X2490681Y-3050668D01*
G01X2489914Y-3050752D01*
G01X2489152Y-3050879D01*
G01X2488400Y-3051049D01*
G01X2487658Y-3051258D01*
G01X2486927Y-3051509D01*
G01X2486213Y-3051799D01*
G01X2485514Y-3052129D01*
G01X2484836Y-3052495D01*
G01X2484178Y-3052901D01*
G01X2483546Y-3053340D01*
G01X2482936Y-3053813D01*
G01X2482355Y-3054321D01*
G01X2481801Y-3054859D01*
G01X2481278Y-3055426D01*
G01X2480788Y-3056020D01*
G01X2480330Y-3056642D01*
G01X2479909Y-3057290D01*
G01X2479523Y-3057958D01*
G01X2479175Y-3058646D01*
G01X2478865Y-3059353D01*
G01X2478596Y-3060074D01*
G01X2478364Y-3060810D01*
G01X2478174Y-3061560D01*
G01X2478027Y-3062317D01*
G01X2477920Y-3063081D01*
G01X2477856Y-3063848D01*
G01X2477836Y-3064620D01*
G01X2477836Y-3126617D01*
G01X2477856Y-3127389D01*
G01X2477920Y-3128156D01*
G01X2478027Y-3128921D01*
G01X2478174Y-3129678D01*
G01X2478364Y-3130427D01*
G01X2478596Y-3131163D01*
G01X2478865Y-3131885D01*
G01X2479175Y-3132591D01*
G01X2479523Y-3133279D01*
G01X2479909Y-3133947D01*
G01X2480330Y-3134595D01*
G01X2480788Y-3135217D01*
G01X2481278Y-3135812D01*
G01X2481801Y-3136378D01*
G01X2482355Y-3136917D01*
G01X2482936Y-3137425D01*
G01X2483546Y-3137897D01*
G01X2484178Y-3138336D01*
G01X2484836Y-3138743D01*
G01X2485514Y-3139109D01*
G01X2486213Y-3139439D01*
G01X2486927Y-3139728D01*
G01X2487658Y-3139980D01*
G01X2488400Y-3140188D01*
G01X2489152Y-3140358D01*
G01X2489914Y-3140485D01*
G01X2490681Y-3140569D01*
G01X2491450Y-3140612D01*
G01X2492223Y-3140612D01*
G01X2492992Y-3140569D01*
G01X2493759Y-3140485D01*
G01X2494521Y-3140358D01*
G01X2495273Y-3140188D01*
G01X2496015Y-3139980D01*
G01X2496746Y-3139728D01*
G01X2497460Y-3139439D01*
G01X2498159Y-3139109D01*
G01X2498837Y-3138743D01*
G01X2499495Y-3138336D01*
G01X2500127Y-3137897D01*
G01X2500737Y-3137425D01*
G01X2501318Y-3136917D01*
G01X2501872Y-3136378D01*
G01X2502395Y-3135812D01*
G01X2502886Y-3135217D01*
G01X2503343Y-3134595D01*
G01X2503764Y-3133947D01*
G01X2504150Y-3133279D01*
G01X2504498Y-3132591D01*
G01X2504808Y-3131885D01*
G01X2505078Y-3131163D01*
G01X2505309Y-3130427D01*
G01X2505499Y-3129678D01*
G01X2505647Y-3128921D01*
G01X2505753Y-3128156D01*
G01X2505817Y-3127389D01*
G01X2505837Y-3126617D01*
G01X2505837Y-3064620D01*
G01X2505817Y-3063848D01*
G01X2505753Y-3063081D01*
G01X2505647Y-3062317D01*
G01X2505499Y-3061560D01*
G01X2505309Y-3060810D01*
G01X2505078Y-3060074D01*
G01X2504808Y-3059353D01*
G01X2504498Y-3058646D01*
G01X2504150Y-3057958D01*
G01X2503764Y-3057290D01*
G01X2503343Y-3056642D01*
G01X2502886Y-3056020D01*
G01X2502395Y-3055426D01*
G01X2501872Y-3054859D01*
G01X2501318Y-3054321D01*
G01X2500737Y-3053813D01*
G01X2500127Y-3053340D01*
G01X2499495Y-3052901D01*
G01X2498837Y-3052495D01*
G01X2498159Y-3052129D01*
G01X2497460Y-3051799D01*
G01X2496746Y-3051509D01*
G01X2496015Y-3051258D01*
G01X2495273Y-3051049D01*
G01X2494521Y-3050879D01*
G01X2493759Y-3050752D01*
G01X2492992Y-3050668D01*
G01X2492223Y-3050625D01*
G01X2491450Y-3050625D01*
G37*
G36*
G01X2793220Y-3050668D02*
G01X2792451Y-3050625D01*
G01X2791678Y-3050625D01*
G01X2790909Y-3050668D01*
G01X2790142Y-3050752D01*
G01X2789380Y-3050879D01*
G01X2788628Y-3051049D01*
G01X2787886Y-3051258D01*
G01X2787155Y-3051509D01*
G01X2786441Y-3051799D01*
G01X2785742Y-3052129D01*
G01X2785064Y-3052495D01*
G01X2784406Y-3052901D01*
G01X2783774Y-3053340D01*
G01X2783164Y-3053813D01*
G01X2782583Y-3054321D01*
G01X2782029Y-3054859D01*
G01X2781506Y-3055426D01*
G01X2781016Y-3056020D01*
G01X2780558Y-3056642D01*
G01X2780137Y-3057290D01*
G01X2779751Y-3057958D01*
G01X2779403Y-3058646D01*
G01X2779093Y-3059353D01*
G01X2778824Y-3060074D01*
G01X2778592Y-3060810D01*
G01X2778402Y-3061560D01*
G01X2778255Y-3062317D01*
G01X2778148Y-3063081D01*
G01X2778084Y-3063848D01*
G01X2778064Y-3064620D01*
G01X2778064Y-3126617D01*
G01X2778084Y-3127389D01*
G01X2778148Y-3128156D01*
G01X2778255Y-3128921D01*
G01X2778402Y-3129678D01*
G01X2778592Y-3130427D01*
G01X2778824Y-3131163D01*
G01X2779093Y-3131885D01*
G01X2779403Y-3132591D01*
G01X2779751Y-3133279D01*
G01X2780137Y-3133947D01*
G01X2780558Y-3134595D01*
G01X2781016Y-3135217D01*
G01X2781506Y-3135812D01*
G01X2782029Y-3136378D01*
G01X2782583Y-3136917D01*
G01X2783164Y-3137425D01*
G01X2783774Y-3137897D01*
G01X2784406Y-3138336D01*
G01X2785064Y-3138743D01*
G01X2785742Y-3139109D01*
G01X2786441Y-3139439D01*
G01X2787155Y-3139728D01*
G01X2787886Y-3139980D01*
G01X2788628Y-3140188D01*
G01X2789380Y-3140358D01*
G01X2790142Y-3140485D01*
G01X2790909Y-3140569D01*
G01X2791678Y-3140612D01*
G01X2792451Y-3140612D01*
G01X2793220Y-3140569D01*
G01X2793987Y-3140485D01*
G01X2794749Y-3140358D01*
G01X2795501Y-3140188D01*
G01X2796243Y-3139980D01*
G01X2796974Y-3139728D01*
G01X2797688Y-3139439D01*
G01X2798387Y-3139109D01*
G01X2799065Y-3138743D01*
G01X2799723Y-3138336D01*
G01X2800355Y-3137897D01*
G01X2800965Y-3137425D01*
G01X2801546Y-3136917D01*
G01X2802100Y-3136378D01*
G01X2802623Y-3135812D01*
G01X2803114Y-3135217D01*
G01X2803571Y-3134595D01*
G01X2803992Y-3133947D01*
G01X2804378Y-3133279D01*
G01X2804726Y-3132591D01*
G01X2805036Y-3131885D01*
G01X2805306Y-3131163D01*
G01X2805537Y-3130427D01*
G01X2805727Y-3129678D01*
G01X2805875Y-3128921D01*
G01X2805981Y-3128156D01*
G01X2806045Y-3127389D01*
G01X2806065Y-3126617D01*
G01X2806065Y-3064620D01*
G01X2806045Y-3063848D01*
G01X2805981Y-3063081D01*
G01X2805875Y-3062317D01*
G01X2805727Y-3061560D01*
G01X2805537Y-3060810D01*
G01X2805306Y-3060074D01*
G01X2805036Y-3059353D01*
G01X2804726Y-3058646D01*
G01X2804378Y-3057958D01*
G01X2803992Y-3057290D01*
G01X2803571Y-3056642D01*
G01X2803114Y-3056020D01*
G01X2802623Y-3055426D01*
G01X2802100Y-3054859D01*
G01X2801546Y-3054321D01*
G01X2800965Y-3053813D01*
G01X2800355Y-3053340D01*
G01X2799723Y-3052901D01*
G01X2799065Y-3052495D01*
G01X2798387Y-3052129D01*
G01X2797688Y-3051799D01*
G01X2796974Y-3051509D01*
G01X2796243Y-3051258D01*
G01X2795501Y-3051049D01*
G01X2794749Y-3050879D01*
G01X2793987Y-3050752D01*
G01X2793220Y-3050668D01*
G37*
G36*
G01X2860192Y-3181537D02*
G01X2859425Y-3181600D01*
G01X2858661Y-3181707D01*
G01X2857904Y-3181854D01*
G01X2857155Y-3182045D01*
G01X2856418Y-3182276D01*
G01X2855697Y-3182545D01*
G01X2854990Y-3182855D01*
G01X2854302Y-3183203D01*
G01X2853634Y-3183589D01*
G01X2852986Y-3184011D01*
G01X2852364Y-3184468D01*
G01X2851770Y-3184958D01*
G01X2851203Y-3185481D01*
G01X2850665Y-3186035D01*
G01X2850157Y-3186617D01*
G01X2849684Y-3187226D01*
G01X2849245Y-3187859D01*
G01X2848839Y-3188517D01*
G01X2848473Y-3189195D01*
G01X2848143Y-3189893D01*
G01X2847853Y-3190607D01*
G01X2847602Y-3191339D01*
G01X2847393Y-3192080D01*
G01X2847223Y-3192832D01*
G01X2847096Y-3193594D01*
G01X2847012Y-3194361D01*
G01X2846969Y-3195131D01*
G01X2846969Y-3195903D01*
G01X2847012Y-3196673D01*
G01X2847096Y-3197440D01*
G01X2847223Y-3198202D01*
G01X2847393Y-3198953D01*
G01X2847602Y-3199695D01*
G01X2847853Y-3200427D01*
G01X2848143Y-3201140D01*
G01X2848473Y-3201839D01*
G01X2848839Y-3202517D01*
G01X2849245Y-3203175D01*
G01X2849684Y-3203807D01*
G01X2850157Y-3204417D01*
G01X2850665Y-3204999D01*
G01X2851203Y-3205552D01*
G01X2851770Y-3206076D01*
G01X2852364Y-3206566D01*
G01X2852986Y-3207023D01*
G01X2853634Y-3207445D01*
G01X2854302Y-3207831D01*
G01X2854990Y-3208179D01*
G01X2855697Y-3208489D01*
G01X2856418Y-3208758D01*
G01X2857155Y-3208989D01*
G01X2857904Y-3209180D01*
G01X2858661Y-3209327D01*
G01X2859425Y-3209434D01*
G01X2860192Y-3209497D01*
G01X2860965Y-3209517D01*
G01X2922963Y-3209517D01*
G01X2923736Y-3209497D01*
G01X2924503Y-3209434D01*
G01X2925267Y-3209327D01*
G01X2926024Y-3209180D01*
G01X2926773Y-3208989D01*
G01X2927510Y-3208758D01*
G01X2928231Y-3208489D01*
G01X2928938Y-3208179D01*
G01X2929626Y-3207831D01*
G01X2930294Y-3207445D01*
G01X2930942Y-3207023D01*
G01X2931564Y-3206566D01*
G01X2932158Y-3206076D01*
G01X2932725Y-3205552D01*
G01X2933263Y-3204999D01*
G01X2933771Y-3204417D01*
G01X2934244Y-3203807D01*
G01X2934683Y-3203175D01*
G01X2935089Y-3202517D01*
G01X2935455Y-3201839D01*
G01X2935785Y-3201140D01*
G01X2936075Y-3200427D01*
G01X2936326Y-3199695D01*
G01X2936535Y-3198953D01*
G01X2936705Y-3198202D01*
G01X2936832Y-3197440D01*
G01X2936916Y-3196673D01*
G01X2936959Y-3195903D01*
G01X2936959Y-3195131D01*
G01X2936916Y-3194361D01*
G01X2936832Y-3193594D01*
G01X2936705Y-3192832D01*
G01X2936535Y-3192080D01*
G01X2936326Y-3191339D01*
G01X2936075Y-3190607D01*
G01X2935785Y-3189893D01*
G01X2935455Y-3189195D01*
G01X2935089Y-3188517D01*
G01X2934683Y-3187859D01*
G01X2934244Y-3187226D01*
G01X2933771Y-3186617D01*
G01X2933263Y-3186035D01*
G01X2932725Y-3185481D01*
G01X2932158Y-3184958D01*
G01X2931564Y-3184468D01*
G01X2930942Y-3184011D01*
G01X2930294Y-3183589D01*
G01X2929626Y-3183203D01*
G01X2928938Y-3182855D01*
G01X2928231Y-3182545D01*
G01X2927510Y-3182276D01*
G01X2926773Y-3182045D01*
G01X2926024Y-3181854D01*
G01X2925267Y-3181707D01*
G01X2924503Y-3181600D01*
G01X2923736Y-3181537D01*
G01X2922963Y-3181516D01*
G01X2860965Y-3181516D01*
G01X2860192Y-3181537D01*
G37*
G36*
G01X2360193Y-3181537D02*
G01X2359426Y-3181600D01*
G01X2358662Y-3181707D01*
G01X2357905Y-3181854D01*
G01X2357156Y-3182045D01*
G01X2356419Y-3182276D01*
G01X2355698Y-3182545D01*
G01X2354991Y-3182855D01*
G01X2354303Y-3183203D01*
G01X2353635Y-3183589D01*
G01X2352987Y-3184011D01*
G01X2352365Y-3184468D01*
G01X2351771Y-3184958D01*
G01X2351204Y-3185481D01*
G01X2350666Y-3186035D01*
G01X2350158Y-3186617D01*
G01X2349685Y-3187226D01*
G01X2349246Y-3187859D01*
G01X2348840Y-3188517D01*
G01X2348474Y-3189195D01*
G01X2348144Y-3189893D01*
G01X2347854Y-3190607D01*
G01X2347603Y-3191339D01*
G01X2347394Y-3192080D01*
G01X2347224Y-3192832D01*
G01X2347097Y-3193594D01*
G01X2347013Y-3194361D01*
G01X2346970Y-3195131D01*
G01X2346970Y-3195903D01*
G01X2347013Y-3196673D01*
G01X2347097Y-3197440D01*
G01X2347224Y-3198202D01*
G01X2347394Y-3198953D01*
G01X2347603Y-3199695D01*
G01X2347854Y-3200427D01*
G01X2348144Y-3201140D01*
G01X2348474Y-3201839D01*
G01X2348840Y-3202517D01*
G01X2349246Y-3203175D01*
G01X2349685Y-3203807D01*
G01X2350158Y-3204417D01*
G01X2350666Y-3204999D01*
G01X2351204Y-3205552D01*
G01X2351771Y-3206076D01*
G01X2352365Y-3206566D01*
G01X2352987Y-3207023D01*
G01X2353635Y-3207445D01*
G01X2354303Y-3207831D01*
G01X2354991Y-3208179D01*
G01X2355698Y-3208489D01*
G01X2356419Y-3208758D01*
G01X2357156Y-3208989D01*
G01X2357905Y-3209180D01*
G01X2358662Y-3209327D01*
G01X2359426Y-3209434D01*
G01X2360193Y-3209497D01*
G01X2360966Y-3209517D01*
G01X2422964Y-3209517D01*
G01X2423737Y-3209497D01*
G01X2424504Y-3209434D01*
G01X2425268Y-3209327D01*
G01X2426025Y-3209180D01*
G01X2426774Y-3208989D01*
G01X2427511Y-3208758D01*
G01X2428232Y-3208489D01*
G01X2428939Y-3208179D01*
G01X2429627Y-3207831D01*
G01X2430295Y-3207445D01*
G01X2430943Y-3207023D01*
G01X2431565Y-3206566D01*
G01X2432159Y-3206076D01*
G01X2432726Y-3205552D01*
G01X2433264Y-3204999D01*
G01X2433772Y-3204417D01*
G01X2434245Y-3203807D01*
G01X2434684Y-3203175D01*
G01X2435090Y-3202517D01*
G01X2435456Y-3201839D01*
G01X2435786Y-3201140D01*
G01X2436076Y-3200427D01*
G01X2436327Y-3199695D01*
G01X2436536Y-3198953D01*
G01X2436706Y-3198202D01*
G01X2436833Y-3197440D01*
G01X2436917Y-3196673D01*
G01X2436960Y-3195903D01*
G01X2436960Y-3195131D01*
G01X2436917Y-3194361D01*
G01X2436833Y-3193594D01*
G01X2436706Y-3192832D01*
G01X2436536Y-3192080D01*
G01X2436327Y-3191339D01*
G01X2436076Y-3190607D01*
G01X2435786Y-3189893D01*
G01X2435456Y-3189195D01*
G01X2435090Y-3188517D01*
G01X2434684Y-3187859D01*
G01X2434245Y-3187226D01*
G01X2433772Y-3186617D01*
G01X2433264Y-3186035D01*
G01X2432726Y-3185481D01*
G01X2432159Y-3184958D01*
G01X2431565Y-3184468D01*
G01X2430943Y-3184011D01*
G01X2430295Y-3183589D01*
G01X2429627Y-3183203D01*
G01X2428939Y-3182855D01*
G01X2428232Y-3182545D01*
G01X2427511Y-3182276D01*
G01X2426774Y-3182045D01*
G01X2426025Y-3181854D01*
G01X2425268Y-3181707D01*
G01X2424504Y-3181600D01*
G01X2423737Y-3181537D01*
G01X2422964Y-3181516D01*
G01X2360966Y-3181516D01*
G01X2360193Y-3181537D01*
G37*
G36*
G01X2769963Y-3473619D02*
G01X2769963Y-3217618D01*
G01X2513963Y-3217618D01*
G01X2513963Y-3473619D01*
G01X2769963Y-3473619D01*
G37*
G36*
G01X2860192Y-3231575D02*
G01X2859425Y-3231638D01*
G01X2858661Y-3231745D01*
G01X2857904Y-3231892D01*
G01X2857155Y-3232083D01*
G01X2856418Y-3232314D01*
G01X2855697Y-3232583D01*
G01X2854990Y-3232893D01*
G01X2854302Y-3233241D01*
G01X2853634Y-3233627D01*
G01X2852986Y-3234049D01*
G01X2852364Y-3234506D01*
G01X2851770Y-3234996D01*
G01X2851203Y-3235519D01*
G01X2850665Y-3236073D01*
G01X2850157Y-3236655D01*
G01X2849684Y-3237264D01*
G01X2849245Y-3237897D01*
G01X2848839Y-3238555D01*
G01X2848473Y-3239233D01*
G01X2848143Y-3239931D01*
G01X2847853Y-3240645D01*
G01X2847602Y-3241377D01*
G01X2847393Y-3242118D01*
G01X2847223Y-3242870D01*
G01X2847096Y-3243632D01*
G01X2847012Y-3244399D01*
G01X2846969Y-3245169D01*
G01X2846969Y-3245941D01*
G01X2847012Y-3246711D01*
G01X2847096Y-3247478D01*
G01X2847223Y-3248240D01*
G01X2847393Y-3248991D01*
G01X2847602Y-3249733D01*
G01X2847853Y-3250465D01*
G01X2848143Y-3251178D01*
G01X2848473Y-3251877D01*
G01X2848839Y-3252555D01*
G01X2849245Y-3253213D01*
G01X2849684Y-3253845D01*
G01X2850157Y-3254455D01*
G01X2850665Y-3255037D01*
G01X2851203Y-3255590D01*
G01X2851770Y-3256114D01*
G01X2852364Y-3256604D01*
G01X2852986Y-3257061D01*
G01X2853634Y-3257483D01*
G01X2854302Y-3257869D01*
G01X2854990Y-3258217D01*
G01X2855697Y-3258527D01*
G01X2856418Y-3258796D01*
G01X2857155Y-3259027D01*
G01X2857904Y-3259218D01*
G01X2858661Y-3259365D01*
G01X2859425Y-3259472D01*
G01X2860192Y-3259535D01*
G01X2860965Y-3259555D01*
G01X2922963Y-3259555D01*
G01X2923736Y-3259535D01*
G01X2924503Y-3259472D01*
G01X2925267Y-3259365D01*
G01X2926024Y-3259218D01*
G01X2926773Y-3259027D01*
G01X2927510Y-3258796D01*
G01X2928231Y-3258527D01*
G01X2928938Y-3258217D01*
G01X2929626Y-3257869D01*
G01X2930294Y-3257483D01*
G01X2930942Y-3257061D01*
G01X2931564Y-3256604D01*
G01X2932158Y-3256114D01*
G01X2932725Y-3255590D01*
G01X2933263Y-3255037D01*
G01X2933771Y-3254455D01*
G01X2934244Y-3253845D01*
G01X2934683Y-3253213D01*
G01X2935089Y-3252555D01*
G01X2935455Y-3251877D01*
G01X2935785Y-3251178D01*
G01X2936075Y-3250465D01*
G01X2936326Y-3249733D01*
G01X2936535Y-3248991D01*
G01X2936705Y-3248240D01*
G01X2936832Y-3247478D01*
G01X2936916Y-3246711D01*
G01X2936959Y-3245941D01*
G01X2936959Y-3245169D01*
G01X2936916Y-3244399D01*
G01X2936832Y-3243632D01*
G01X2936705Y-3242870D01*
G01X2936535Y-3242118D01*
G01X2936326Y-3241377D01*
G01X2936075Y-3240645D01*
G01X2935785Y-3239931D01*
G01X2935455Y-3239233D01*
G01X2935089Y-3238555D01*
G01X2934683Y-3237897D01*
G01X2934244Y-3237264D01*
G01X2933771Y-3236655D01*
G01X2933263Y-3236073D01*
G01X2932725Y-3235519D01*
G01X2932158Y-3234996D01*
G01X2931564Y-3234506D01*
G01X2930942Y-3234049D01*
G01X2930294Y-3233627D01*
G01X2929626Y-3233241D01*
G01X2928938Y-3232893D01*
G01X2928231Y-3232583D01*
G01X2927510Y-3232314D01*
G01X2926773Y-3232083D01*
G01X2926024Y-3231892D01*
G01X2925267Y-3231745D01*
G01X2924503Y-3231638D01*
G01X2923736Y-3231575D01*
G01X2922963Y-3231554D01*
G01X2860965Y-3231554D01*
G01X2860192Y-3231575D01*
G37*
G36*
G01X2424504Y-3231638D02*
G01X2423737Y-3231575D01*
G01X2422964Y-3231554D01*
G01X2360966Y-3231554D01*
G01X2360193Y-3231575D01*
G01X2359426Y-3231638D01*
G01X2358662Y-3231745D01*
G01X2357905Y-3231892D01*
G01X2357156Y-3232083D01*
G01X2356419Y-3232314D01*
G01X2355698Y-3232583D01*
G01X2354991Y-3232893D01*
G01X2354303Y-3233241D01*
G01X2353635Y-3233627D01*
G01X2352987Y-3234049D01*
G01X2352365Y-3234506D01*
G01X2351771Y-3234996D01*
G01X2351204Y-3235519D01*
G01X2350666Y-3236073D01*
G01X2350158Y-3236655D01*
G01X2349685Y-3237264D01*
G01X2349246Y-3237897D01*
G01X2348840Y-3238555D01*
G01X2348474Y-3239233D01*
G01X2348144Y-3239931D01*
G01X2347854Y-3240645D01*
G01X2347603Y-3241377D01*
G01X2347394Y-3242118D01*
G01X2347224Y-3242870D01*
G01X2347097Y-3243632D01*
G01X2347013Y-3244399D01*
G01X2346970Y-3245169D01*
G01X2346970Y-3245941D01*
G01X2347013Y-3246711D01*
G01X2347097Y-3247478D01*
G01X2347224Y-3248240D01*
G01X2347394Y-3248991D01*
G01X2347603Y-3249733D01*
G01X2347854Y-3250465D01*
G01X2348144Y-3251178D01*
G01X2348474Y-3251877D01*
G01X2348840Y-3252555D01*
G01X2349246Y-3253213D01*
G01X2349685Y-3253845D01*
G01X2350158Y-3254455D01*
G01X2350666Y-3255037D01*
G01X2351204Y-3255590D01*
G01X2351771Y-3256114D01*
G01X2352365Y-3256604D01*
G01X2352987Y-3257061D01*
G01X2353635Y-3257483D01*
G01X2354303Y-3257869D01*
G01X2354991Y-3258217D01*
G01X2355698Y-3258527D01*
G01X2356419Y-3258796D01*
G01X2357156Y-3259027D01*
G01X2357905Y-3259218D01*
G01X2358662Y-3259365D01*
G01X2359426Y-3259472D01*
G01X2360193Y-3259535D01*
G01X2360966Y-3259555D01*
G01X2422964Y-3259555D01*
G01X2423737Y-3259535D01*
G01X2424504Y-3259472D01*
G01X2425268Y-3259365D01*
G01X2426025Y-3259218D01*
G01X2426774Y-3259027D01*
G01X2427511Y-3258796D01*
G01X2428232Y-3258527D01*
G01X2428939Y-3258217D01*
G01X2429627Y-3257869D01*
G01X2430295Y-3257483D01*
G01X2430943Y-3257061D01*
G01X2431565Y-3256604D01*
G01X2432159Y-3256114D01*
G01X2432726Y-3255590D01*
G01X2433264Y-3255037D01*
G01X2433772Y-3254455D01*
G01X2434245Y-3253845D01*
G01X2434684Y-3253213D01*
G01X2435090Y-3252555D01*
G01X2435456Y-3251877D01*
G01X2435786Y-3251178D01*
G01X2436076Y-3250465D01*
G01X2436327Y-3249733D01*
G01X2436536Y-3248991D01*
G01X2436706Y-3248240D01*
G01X2436833Y-3247478D01*
G01X2436917Y-3246711D01*
G01X2436960Y-3245941D01*
G01X2436960Y-3245169D01*
G01X2436917Y-3244399D01*
G01X2436833Y-3243632D01*
G01X2436706Y-3242870D01*
G01X2436536Y-3242118D01*
G01X2436327Y-3241377D01*
G01X2436076Y-3240645D01*
G01X2435786Y-3239931D01*
G01X2435456Y-3239233D01*
G01X2435090Y-3238555D01*
G01X2434684Y-3237897D01*
G01X2434245Y-3237264D01*
G01X2433772Y-3236655D01*
G01X2433264Y-3236073D01*
G01X2432726Y-3235519D01*
G01X2432159Y-3234996D01*
G01X2431565Y-3234506D01*
G01X2430943Y-3234049D01*
G01X2430295Y-3233627D01*
G01X2429627Y-3233241D01*
G01X2428939Y-3232893D01*
G01X2428232Y-3232583D01*
G01X2427511Y-3232314D01*
G01X2426774Y-3232083D01*
G01X2426025Y-3231892D01*
G01X2425268Y-3231745D01*
G01X2424504Y-3231638D01*
G37*
G36*
G01X2924503Y-3281676D02*
G01X2923736Y-3281613D01*
G01X2922963Y-3281592D01*
G01X2860965Y-3281592D01*
G01X2860192Y-3281613D01*
G01X2859425Y-3281676D01*
G01X2858661Y-3281783D01*
G01X2857904Y-3281930D01*
G01X2857155Y-3282121D01*
G01X2856418Y-3282352D01*
G01X2855697Y-3282621D01*
G01X2854990Y-3282931D01*
G01X2854302Y-3283279D01*
G01X2853634Y-3283665D01*
G01X2852986Y-3284087D01*
G01X2852364Y-3284544D01*
G01X2851770Y-3285034D01*
G01X2851203Y-3285557D01*
G01X2850665Y-3286111D01*
G01X2850157Y-3286693D01*
G01X2849684Y-3287302D01*
G01X2849245Y-3287935D01*
G01X2848839Y-3288593D01*
G01X2848473Y-3289271D01*
G01X2848143Y-3289969D01*
G01X2847853Y-3290683D01*
G01X2847602Y-3291415D01*
G01X2847393Y-3292156D01*
G01X2847223Y-3292908D01*
G01X2847096Y-3293670D01*
G01X2847012Y-3294437D01*
G01X2846969Y-3295207D01*
G01X2846969Y-3295979D01*
G01X2847012Y-3296749D01*
G01X2847096Y-3297516D01*
G01X2847223Y-3298278D01*
G01X2847393Y-3299029D01*
G01X2847602Y-3299771D01*
G01X2847853Y-3300503D01*
G01X2848143Y-3301216D01*
G01X2848473Y-3301915D01*
G01X2848839Y-3302593D01*
G01X2849245Y-3303251D01*
G01X2849684Y-3303883D01*
G01X2850157Y-3304493D01*
G01X2850665Y-3305075D01*
G01X2851203Y-3305628D01*
G01X2851770Y-3306152D01*
G01X2852364Y-3306642D01*
G01X2852986Y-3307099D01*
G01X2853634Y-3307521D01*
G01X2854302Y-3307907D01*
G01X2854990Y-3308255D01*
G01X2855697Y-3308565D01*
G01X2856418Y-3308834D01*
G01X2857155Y-3309065D01*
G01X2857904Y-3309256D01*
G01X2858661Y-3309403D01*
G01X2859425Y-3309510D01*
G01X2860192Y-3309573D01*
G01X2860965Y-3309593D01*
G01X2922963Y-3309593D01*
G01X2923736Y-3309573D01*
G01X2924503Y-3309510D01*
G01X2925267Y-3309403D01*
G01X2926024Y-3309256D01*
G01X2926773Y-3309065D01*
G01X2927510Y-3308834D01*
G01X2928231Y-3308565D01*
G01X2928938Y-3308255D01*
G01X2929626Y-3307907D01*
G01X2930294Y-3307521D01*
G01X2930942Y-3307099D01*
G01X2931564Y-3306642D01*
G01X2932158Y-3306152D01*
G01X2932725Y-3305628D01*
G01X2933263Y-3305075D01*
G01X2933771Y-3304493D01*
G01X2934244Y-3303883D01*
G01X2934683Y-3303251D01*
G01X2935089Y-3302593D01*
G01X2935455Y-3301915D01*
G01X2935785Y-3301216D01*
G01X2936075Y-3300503D01*
G01X2936326Y-3299771D01*
G01X2936535Y-3299029D01*
G01X2936705Y-3298278D01*
G01X2936832Y-3297516D01*
G01X2936916Y-3296749D01*
G01X2936959Y-3295979D01*
G01X2936959Y-3295207D01*
G01X2936916Y-3294437D01*
G01X2936832Y-3293670D01*
G01X2936705Y-3292908D01*
G01X2936535Y-3292156D01*
G01X2936326Y-3291415D01*
G01X2936075Y-3290683D01*
G01X2935785Y-3289969D01*
G01X2935455Y-3289271D01*
G01X2935089Y-3288593D01*
G01X2934683Y-3287935D01*
G01X2934244Y-3287302D01*
G01X2933771Y-3286693D01*
G01X2933263Y-3286111D01*
G01X2932725Y-3285557D01*
G01X2932158Y-3285034D01*
G01X2931564Y-3284544D01*
G01X2930942Y-3284087D01*
G01X2930294Y-3283665D01*
G01X2929626Y-3283279D01*
G01X2928938Y-3282931D01*
G01X2928231Y-3282621D01*
G01X2927510Y-3282352D01*
G01X2926773Y-3282121D01*
G01X2926024Y-3281930D01*
G01X2925267Y-3281783D01*
G01X2924503Y-3281676D01*
G37*
G36*
G01X2424504Y-3281676D02*
G01X2423737Y-3281613D01*
G01X2422964Y-3281592D01*
G01X2360966Y-3281592D01*
G01X2360193Y-3281613D01*
G01X2359426Y-3281676D01*
G01X2358662Y-3281783D01*
G01X2357905Y-3281930D01*
G01X2357156Y-3282121D01*
G01X2356419Y-3282352D01*
G01X2355698Y-3282621D01*
G01X2354991Y-3282931D01*
G01X2354303Y-3283279D01*
G01X2353635Y-3283665D01*
G01X2352987Y-3284087D01*
G01X2352365Y-3284544D01*
G01X2351771Y-3285034D01*
G01X2351204Y-3285557D01*
G01X2350666Y-3286111D01*
G01X2350158Y-3286693D01*
G01X2349685Y-3287302D01*
G01X2349246Y-3287935D01*
G01X2348840Y-3288593D01*
G01X2348474Y-3289271D01*
G01X2348144Y-3289969D01*
G01X2347854Y-3290683D01*
G01X2347603Y-3291415D01*
G01X2347394Y-3292156D01*
G01X2347224Y-3292908D01*
G01X2347097Y-3293670D01*
G01X2347013Y-3294437D01*
G01X2346970Y-3295207D01*
G01X2346970Y-3295979D01*
G01X2347013Y-3296749D01*
G01X2347097Y-3297516D01*
G01X2347224Y-3298278D01*
G01X2347394Y-3299029D01*
G01X2347603Y-3299771D01*
G01X2347854Y-3300503D01*
G01X2348144Y-3301216D01*
G01X2348474Y-3301915D01*
G01X2348840Y-3302593D01*
G01X2349246Y-3303251D01*
G01X2349685Y-3303883D01*
G01X2350158Y-3304493D01*
G01X2350666Y-3305075D01*
G01X2351204Y-3305628D01*
G01X2351771Y-3306152D01*
G01X2352365Y-3306642D01*
G01X2352987Y-3307099D01*
G01X2353635Y-3307521D01*
G01X2354303Y-3307907D01*
G01X2354991Y-3308255D01*
G01X2355698Y-3308565D01*
G01X2356419Y-3308834D01*
G01X2357156Y-3309065D01*
G01X2357905Y-3309256D01*
G01X2358662Y-3309403D01*
G01X2359426Y-3309510D01*
G01X2360193Y-3309573D01*
G01X2360966Y-3309593D01*
G01X2422964Y-3309593D01*
G01X2423737Y-3309573D01*
G01X2424504Y-3309510D01*
G01X2425268Y-3309403D01*
G01X2426025Y-3309256D01*
G01X2426774Y-3309065D01*
G01X2427511Y-3308834D01*
G01X2428232Y-3308565D01*
G01X2428939Y-3308255D01*
G01X2429627Y-3307907D01*
G01X2430295Y-3307521D01*
G01X2430943Y-3307099D01*
G01X2431565Y-3306642D01*
G01X2432159Y-3306152D01*
G01X2432726Y-3305628D01*
G01X2433264Y-3305075D01*
G01X2433772Y-3304493D01*
G01X2434245Y-3303883D01*
G01X2434684Y-3303251D01*
G01X2435090Y-3302593D01*
G01X2435456Y-3301915D01*
G01X2435786Y-3301216D01*
G01X2436076Y-3300503D01*
G01X2436327Y-3299771D01*
G01X2436536Y-3299029D01*
G01X2436706Y-3298278D01*
G01X2436833Y-3297516D01*
G01X2436917Y-3296749D01*
G01X2436960Y-3295979D01*
G01X2436960Y-3295207D01*
G01X2436917Y-3294437D01*
G01X2436833Y-3293670D01*
G01X2436706Y-3292908D01*
G01X2436536Y-3292156D01*
G01X2436327Y-3291415D01*
G01X2436076Y-3290683D01*
G01X2435786Y-3289969D01*
G01X2435456Y-3289271D01*
G01X2435090Y-3288593D01*
G01X2434684Y-3287935D01*
G01X2434245Y-3287302D01*
G01X2433772Y-3286693D01*
G01X2433264Y-3286111D01*
G01X2432726Y-3285557D01*
G01X2432159Y-3285034D01*
G01X2431565Y-3284544D01*
G01X2430943Y-3284087D01*
G01X2430295Y-3283665D01*
G01X2429627Y-3283279D01*
G01X2428939Y-3282931D01*
G01X2428232Y-3282621D01*
G01X2427511Y-3282352D01*
G01X2426774Y-3282121D01*
G01X2426025Y-3281930D01*
G01X2425268Y-3281783D01*
G01X2424504Y-3281676D01*
G37*
G36*
G01X2860192Y-3331651D02*
G01X2859425Y-3331714D01*
G01X2858661Y-3331821D01*
G01X2857904Y-3331968D01*
G01X2857155Y-3332159D01*
G01X2856418Y-3332390D01*
G01X2855697Y-3332659D01*
G01X2854990Y-3332969D01*
G01X2854302Y-3333317D01*
G01X2853634Y-3333703D01*
G01X2852986Y-3334125D01*
G01X2852364Y-3334582D01*
G01X2851770Y-3335072D01*
G01X2851203Y-3335595D01*
G01X2850665Y-3336149D01*
G01X2850157Y-3336731D01*
G01X2849684Y-3337340D01*
G01X2849245Y-3337973D01*
G01X2848839Y-3338631D01*
G01X2848473Y-3339309D01*
G01X2848143Y-3340007D01*
G01X2847853Y-3340721D01*
G01X2847602Y-3341453D01*
G01X2847393Y-3342194D01*
G01X2847223Y-3342946D01*
G01X2847096Y-3343708D01*
G01X2847012Y-3344475D01*
G01X2846969Y-3345245D01*
G01X2846969Y-3346017D01*
G01X2847012Y-3346787D01*
G01X2847096Y-3347554D01*
G01X2847223Y-3348316D01*
G01X2847393Y-3349067D01*
G01X2847602Y-3349809D01*
G01X2847853Y-3350541D01*
G01X2848143Y-3351254D01*
G01X2848473Y-3351953D01*
G01X2848839Y-3352631D01*
G01X2849245Y-3353289D01*
G01X2849684Y-3353921D01*
G01X2850157Y-3354531D01*
G01X2850665Y-3355113D01*
G01X2851203Y-3355666D01*
G01X2851770Y-3356190D01*
G01X2852364Y-3356680D01*
G01X2852986Y-3357137D01*
G01X2853634Y-3357559D01*
G01X2854302Y-3357945D01*
G01X2854990Y-3358293D01*
G01X2855697Y-3358603D01*
G01X2856418Y-3358872D01*
G01X2857155Y-3359103D01*
G01X2857904Y-3359294D01*
G01X2858661Y-3359441D01*
G01X2859425Y-3359548D01*
G01X2860192Y-3359611D01*
G01X2860965Y-3359631D01*
G01X2922963Y-3359631D01*
G01X2923736Y-3359611D01*
G01X2924503Y-3359548D01*
G01X2925267Y-3359441D01*
G01X2926024Y-3359294D01*
G01X2926773Y-3359103D01*
G01X2927510Y-3358872D01*
G01X2928231Y-3358603D01*
G01X2928938Y-3358293D01*
G01X2929626Y-3357945D01*
G01X2930294Y-3357559D01*
G01X2930942Y-3357137D01*
G01X2931564Y-3356680D01*
G01X2932158Y-3356190D01*
G01X2932725Y-3355666D01*
G01X2933263Y-3355113D01*
G01X2933771Y-3354531D01*
G01X2934244Y-3353921D01*
G01X2934683Y-3353289D01*
G01X2935089Y-3352631D01*
G01X2935455Y-3351953D01*
G01X2935785Y-3351254D01*
G01X2936075Y-3350541D01*
G01X2936326Y-3349809D01*
G01X2936535Y-3349067D01*
G01X2936705Y-3348316D01*
G01X2936832Y-3347554D01*
G01X2936916Y-3346787D01*
G01X2936959Y-3346017D01*
G01X2936959Y-3345245D01*
G01X2936916Y-3344475D01*
G01X2936832Y-3343708D01*
G01X2936705Y-3342946D01*
G01X2936535Y-3342194D01*
G01X2936326Y-3341453D01*
G01X2936075Y-3340721D01*
G01X2935785Y-3340007D01*
G01X2935455Y-3339309D01*
G01X2935089Y-3338631D01*
G01X2934683Y-3337973D01*
G01X2934244Y-3337340D01*
G01X2933771Y-3336731D01*
G01X2933263Y-3336149D01*
G01X2932725Y-3335595D01*
G01X2932158Y-3335072D01*
G01X2931564Y-3334582D01*
G01X2930942Y-3334125D01*
G01X2930294Y-3333703D01*
G01X2929626Y-3333317D01*
G01X2928938Y-3332969D01*
G01X2928231Y-3332659D01*
G01X2927510Y-3332390D01*
G01X2926773Y-3332159D01*
G01X2926024Y-3331968D01*
G01X2925267Y-3331821D01*
G01X2924503Y-3331714D01*
G01X2923736Y-3331651D01*
G01X2922963Y-3331630D01*
G01X2860965Y-3331630D01*
G01X2860192Y-3331651D01*
G37*
G36*
G01X2424504Y-3331714D02*
G01X2423737Y-3331651D01*
G01X2422964Y-3331630D01*
G01X2360966Y-3331630D01*
G01X2360193Y-3331651D01*
G01X2359426Y-3331714D01*
G01X2358662Y-3331821D01*
G01X2357905Y-3331968D01*
G01X2357156Y-3332159D01*
G01X2356419Y-3332390D01*
G01X2355698Y-3332659D01*
G01X2354991Y-3332969D01*
G01X2354303Y-3333317D01*
G01X2353635Y-3333703D01*
G01X2352987Y-3334125D01*
G01X2352365Y-3334582D01*
G01X2351771Y-3335072D01*
G01X2351204Y-3335595D01*
G01X2350666Y-3336149D01*
G01X2350158Y-3336731D01*
G01X2349685Y-3337340D01*
G01X2349246Y-3337973D01*
G01X2348840Y-3338631D01*
G01X2348474Y-3339309D01*
G01X2348144Y-3340007D01*
G01X2347854Y-3340721D01*
G01X2347603Y-3341453D01*
G01X2347394Y-3342194D01*
G01X2347224Y-3342946D01*
G01X2347097Y-3343708D01*
G01X2347013Y-3344475D01*
G01X2346970Y-3345245D01*
G01X2346970Y-3346017D01*
G01X2347013Y-3346787D01*
G01X2347097Y-3347554D01*
G01X2347224Y-3348316D01*
G01X2347394Y-3349067D01*
G01X2347603Y-3349809D01*
G01X2347854Y-3350541D01*
G01X2348144Y-3351254D01*
G01X2348474Y-3351953D01*
G01X2348840Y-3352631D01*
G01X2349246Y-3353289D01*
G01X2349685Y-3353921D01*
G01X2350158Y-3354531D01*
G01X2350666Y-3355113D01*
G01X2351204Y-3355666D01*
G01X2351771Y-3356190D01*
G01X2352365Y-3356680D01*
G01X2352987Y-3357137D01*
G01X2353635Y-3357559D01*
G01X2354303Y-3357945D01*
G01X2354991Y-3358293D01*
G01X2355698Y-3358603D01*
G01X2356419Y-3358872D01*
G01X2357156Y-3359103D01*
G01X2357905Y-3359294D01*
G01X2358662Y-3359441D01*
G01X2359426Y-3359548D01*
G01X2360193Y-3359611D01*
G01X2360966Y-3359631D01*
G01X2422964Y-3359631D01*
G01X2423737Y-3359611D01*
G01X2424504Y-3359548D01*
G01X2425268Y-3359441D01*
G01X2426025Y-3359294D01*
G01X2426774Y-3359103D01*
G01X2427511Y-3358872D01*
G01X2428232Y-3358603D01*
G01X2428939Y-3358293D01*
G01X2429627Y-3357945D01*
G01X2430295Y-3357559D01*
G01X2430943Y-3357137D01*
G01X2431565Y-3356680D01*
G01X2432159Y-3356190D01*
G01X2432726Y-3355666D01*
G01X2433264Y-3355113D01*
G01X2433772Y-3354531D01*
G01X2434245Y-3353921D01*
G01X2434684Y-3353289D01*
G01X2435090Y-3352631D01*
G01X2435456Y-3351953D01*
G01X2435786Y-3351254D01*
G01X2436076Y-3350541D01*
G01X2436327Y-3349809D01*
G01X2436536Y-3349067D01*
G01X2436706Y-3348316D01*
G01X2436833Y-3347554D01*
G01X2436917Y-3346787D01*
G01X2436960Y-3346017D01*
G01X2436960Y-3345245D01*
G01X2436917Y-3344475D01*
G01X2436833Y-3343708D01*
G01X2436706Y-3342946D01*
G01X2436536Y-3342194D01*
G01X2436327Y-3341453D01*
G01X2436076Y-3340721D01*
G01X2435786Y-3340007D01*
G01X2435456Y-3339309D01*
G01X2435090Y-3338631D01*
G01X2434684Y-3337973D01*
G01X2434245Y-3337340D01*
G01X2433772Y-3336731D01*
G01X2433264Y-3336149D01*
G01X2432726Y-3335595D01*
G01X2432159Y-3335072D01*
G01X2431565Y-3334582D01*
G01X2430943Y-3334125D01*
G01X2430295Y-3333703D01*
G01X2429627Y-3333317D01*
G01X2428939Y-3332969D01*
G01X2428232Y-3332659D01*
G01X2427511Y-3332390D01*
G01X2426774Y-3332159D01*
G01X2426025Y-3331968D01*
G01X2425268Y-3331821D01*
G01X2424504Y-3331714D01*
G37*
G36*
G01X2860192Y-3381689D02*
G01X2859425Y-3381752D01*
G01X2858661Y-3381859D01*
G01X2857904Y-3382006D01*
G01X2857155Y-3382197D01*
G01X2856418Y-3382428D01*
G01X2855697Y-3382697D01*
G01X2854990Y-3383007D01*
G01X2854302Y-3383355D01*
G01X2853634Y-3383741D01*
G01X2852986Y-3384163D01*
G01X2852364Y-3384620D01*
G01X2851770Y-3385110D01*
G01X2851203Y-3385633D01*
G01X2850665Y-3386187D01*
G01X2850157Y-3386769D01*
G01X2849684Y-3387378D01*
G01X2849245Y-3388011D01*
G01X2848839Y-3388669D01*
G01X2848473Y-3389347D01*
G01X2848143Y-3390045D01*
G01X2847853Y-3390759D01*
G01X2847602Y-3391491D01*
G01X2847393Y-3392232D01*
G01X2847223Y-3392984D01*
G01X2847096Y-3393746D01*
G01X2847012Y-3394513D01*
G01X2846969Y-3395283D01*
G01X2846969Y-3396055D01*
G01X2847012Y-3396825D01*
G01X2847096Y-3397592D01*
G01X2847223Y-3398354D01*
G01X2847393Y-3399105D01*
G01X2847602Y-3399847D01*
G01X2847853Y-3400579D01*
G01X2848143Y-3401292D01*
G01X2848473Y-3401991D01*
G01X2848839Y-3402669D01*
G01X2849245Y-3403327D01*
G01X2849684Y-3403959D01*
G01X2850157Y-3404569D01*
G01X2850665Y-3405151D01*
G01X2851203Y-3405704D01*
G01X2851770Y-3406228D01*
G01X2852364Y-3406718D01*
G01X2852986Y-3407175D01*
G01X2853634Y-3407597D01*
G01X2854302Y-3407983D01*
G01X2854990Y-3408331D01*
G01X2855697Y-3408641D01*
G01X2856418Y-3408910D01*
G01X2857155Y-3409141D01*
G01X2857904Y-3409332D01*
G01X2858661Y-3409479D01*
G01X2859425Y-3409586D01*
G01X2860192Y-3409649D01*
G01X2860965Y-3409669D01*
G01X2922963Y-3409669D01*
G01X2923736Y-3409649D01*
G01X2924503Y-3409586D01*
G01X2925267Y-3409479D01*
G01X2926024Y-3409332D01*
G01X2926773Y-3409141D01*
G01X2927510Y-3408910D01*
G01X2928231Y-3408641D01*
G01X2928938Y-3408331D01*
G01X2929626Y-3407983D01*
G01X2930294Y-3407597D01*
G01X2930942Y-3407175D01*
G01X2931564Y-3406718D01*
G01X2932158Y-3406228D01*
G01X2932725Y-3405704D01*
G01X2933263Y-3405151D01*
G01X2933771Y-3404569D01*
G01X2934244Y-3403959D01*
G01X2934683Y-3403327D01*
G01X2935089Y-3402669D01*
G01X2935455Y-3401991D01*
G01X2935785Y-3401292D01*
G01X2936075Y-3400579D01*
G01X2936326Y-3399847D01*
G01X2936535Y-3399105D01*
G01X2936705Y-3398354D01*
G01X2936832Y-3397592D01*
G01X2936916Y-3396825D01*
G01X2936959Y-3396055D01*
G01X2936959Y-3395283D01*
G01X2936916Y-3394513D01*
G01X2936832Y-3393746D01*
G01X2936705Y-3392984D01*
G01X2936535Y-3392232D01*
G01X2936326Y-3391491D01*
G01X2936075Y-3390759D01*
G01X2935785Y-3390045D01*
G01X2935455Y-3389347D01*
G01X2935089Y-3388669D01*
G01X2934683Y-3388011D01*
G01X2934244Y-3387378D01*
G01X2933771Y-3386769D01*
G01X2933263Y-3386187D01*
G01X2932725Y-3385633D01*
G01X2932158Y-3385110D01*
G01X2931564Y-3384620D01*
G01X2930942Y-3384163D01*
G01X2930294Y-3383741D01*
G01X2929626Y-3383355D01*
G01X2928938Y-3383007D01*
G01X2928231Y-3382697D01*
G01X2927510Y-3382428D01*
G01X2926773Y-3382197D01*
G01X2926024Y-3382006D01*
G01X2925267Y-3381859D01*
G01X2924503Y-3381752D01*
G01X2923736Y-3381689D01*
G01X2922963Y-3381668D01*
G01X2860965Y-3381668D01*
G01X2860192Y-3381689D01*
G37*
G36*
G01X2424504Y-3381752D02*
G01X2423737Y-3381689D01*
G01X2422964Y-3381668D01*
G01X2360966Y-3381668D01*
G01X2360193Y-3381689D01*
G01X2359426Y-3381752D01*
G01X2358662Y-3381859D01*
G01X2357905Y-3382006D01*
G01X2357156Y-3382197D01*
G01X2356419Y-3382428D01*
G01X2355698Y-3382697D01*
G01X2354991Y-3383007D01*
G01X2354303Y-3383355D01*
G01X2353635Y-3383741D01*
G01X2352987Y-3384163D01*
G01X2352365Y-3384620D01*
G01X2351771Y-3385110D01*
G01X2351204Y-3385633D01*
G01X2350666Y-3386187D01*
G01X2350158Y-3386769D01*
G01X2349685Y-3387378D01*
G01X2349246Y-3388011D01*
G01X2348840Y-3388669D01*
G01X2348474Y-3389347D01*
G01X2348144Y-3390045D01*
G01X2347854Y-3390759D01*
G01X2347603Y-3391491D01*
G01X2347394Y-3392232D01*
G01X2347224Y-3392984D01*
G01X2347097Y-3393746D01*
G01X2347013Y-3394513D01*
G01X2346970Y-3395283D01*
G01X2346970Y-3396055D01*
G01X2347013Y-3396825D01*
G01X2347097Y-3397592D01*
G01X2347224Y-3398354D01*
G01X2347394Y-3399105D01*
G01X2347603Y-3399847D01*
G01X2347854Y-3400579D01*
G01X2348144Y-3401292D01*
G01X2348474Y-3401991D01*
G01X2348840Y-3402669D01*
G01X2349246Y-3403327D01*
G01X2349685Y-3403959D01*
G01X2350158Y-3404569D01*
G01X2350666Y-3405151D01*
G01X2351204Y-3405704D01*
G01X2351771Y-3406228D01*
G01X2352365Y-3406718D01*
G01X2352987Y-3407175D01*
G01X2353635Y-3407597D01*
G01X2354303Y-3407983D01*
G01X2354991Y-3408331D01*
G01X2355698Y-3408641D01*
G01X2356419Y-3408910D01*
G01X2357156Y-3409141D01*
G01X2357905Y-3409332D01*
G01X2358662Y-3409479D01*
G01X2359426Y-3409586D01*
G01X2360193Y-3409649D01*
G01X2360966Y-3409669D01*
G01X2422964Y-3409669D01*
G01X2423737Y-3409649D01*
G01X2424504Y-3409586D01*
G01X2425268Y-3409479D01*
G01X2426025Y-3409332D01*
G01X2426774Y-3409141D01*
G01X2427511Y-3408910D01*
G01X2428232Y-3408641D01*
G01X2428939Y-3408331D01*
G01X2429627Y-3407983D01*
G01X2430295Y-3407597D01*
G01X2430943Y-3407175D01*
G01X2431565Y-3406718D01*
G01X2432159Y-3406228D01*
G01X2432726Y-3405704D01*
G01X2433264Y-3405151D01*
G01X2433772Y-3404569D01*
G01X2434245Y-3403959D01*
G01X2434684Y-3403327D01*
G01X2435090Y-3402669D01*
G01X2435456Y-3401991D01*
G01X2435786Y-3401292D01*
G01X2436076Y-3400579D01*
G01X2436327Y-3399847D01*
G01X2436536Y-3399105D01*
G01X2436706Y-3398354D01*
G01X2436833Y-3397592D01*
G01X2436917Y-3396825D01*
G01X2436960Y-3396055D01*
G01X2436960Y-3395283D01*
G01X2436917Y-3394513D01*
G01X2436833Y-3393746D01*
G01X2436706Y-3392984D01*
G01X2436536Y-3392232D01*
G01X2436327Y-3391491D01*
G01X2436076Y-3390759D01*
G01X2435786Y-3390045D01*
G01X2435456Y-3389347D01*
G01X2435090Y-3388669D01*
G01X2434684Y-3388011D01*
G01X2434245Y-3387378D01*
G01X2433772Y-3386769D01*
G01X2433264Y-3386187D01*
G01X2432726Y-3385633D01*
G01X2432159Y-3385110D01*
G01X2431565Y-3384620D01*
G01X2430943Y-3384163D01*
G01X2430295Y-3383741D01*
G01X2429627Y-3383355D01*
G01X2428939Y-3383007D01*
G01X2428232Y-3382697D01*
G01X2427511Y-3382428D01*
G01X2426774Y-3382197D01*
G01X2426025Y-3382006D01*
G01X2425268Y-3381859D01*
G01X2424504Y-3381752D01*
G37*
G36*
G01X2924503Y-3431790D02*
G01X2923736Y-3431727D01*
G01X2922963Y-3431706D01*
G01X2860965Y-3431706D01*
G01X2860192Y-3431727D01*
G01X2859425Y-3431790D01*
G01X2858661Y-3431897D01*
G01X2857904Y-3432044D01*
G01X2857155Y-3432235D01*
G01X2856418Y-3432466D01*
G01X2855697Y-3432735D01*
G01X2854990Y-3433045D01*
G01X2854302Y-3433393D01*
G01X2853634Y-3433779D01*
G01X2852986Y-3434201D01*
G01X2852364Y-3434658D01*
G01X2851770Y-3435148D01*
G01X2851203Y-3435671D01*
G01X2850665Y-3436225D01*
G01X2850157Y-3436807D01*
G01X2849684Y-3437416D01*
G01X2849245Y-3438049D01*
G01X2848839Y-3438707D01*
G01X2848473Y-3439385D01*
G01X2848143Y-3440083D01*
G01X2847853Y-3440797D01*
G01X2847602Y-3441529D01*
G01X2847393Y-3442270D01*
G01X2847223Y-3443022D01*
G01X2847096Y-3443784D01*
G01X2847012Y-3444551D01*
G01X2846969Y-3445321D01*
G01X2846969Y-3446093D01*
G01X2847012Y-3446863D01*
G01X2847096Y-3447630D01*
G01X2847223Y-3448392D01*
G01X2847393Y-3449143D01*
G01X2847602Y-3449885D01*
G01X2847853Y-3450617D01*
G01X2848143Y-3451330D01*
G01X2848473Y-3452029D01*
G01X2848839Y-3452707D01*
G01X2849245Y-3453365D01*
G01X2849684Y-3453997D01*
G01X2850157Y-3454607D01*
G01X2850665Y-3455189D01*
G01X2851203Y-3455742D01*
G01X2851770Y-3456266D01*
G01X2852364Y-3456756D01*
G01X2852986Y-3457213D01*
G01X2853634Y-3457635D01*
G01X2854302Y-3458021D01*
G01X2854990Y-3458369D01*
G01X2855697Y-3458679D01*
G01X2856418Y-3458948D01*
G01X2857155Y-3459179D01*
G01X2857904Y-3459370D01*
G01X2858661Y-3459517D01*
G01X2859425Y-3459624D01*
G01X2860192Y-3459687D01*
G01X2860965Y-3459707D01*
G01X2922963Y-3459707D01*
G01X2923736Y-3459687D01*
G01X2924503Y-3459624D01*
G01X2925267Y-3459517D01*
G01X2926024Y-3459370D01*
G01X2926773Y-3459179D01*
G01X2927510Y-3458948D01*
G01X2928231Y-3458679D01*
G01X2928938Y-3458369D01*
G01X2929626Y-3458021D01*
G01X2930294Y-3457635D01*
G01X2930942Y-3457213D01*
G01X2931564Y-3456756D01*
G01X2932158Y-3456266D01*
G01X2932725Y-3455742D01*
G01X2933263Y-3455189D01*
G01X2933771Y-3454607D01*
G01X2934244Y-3453997D01*
G01X2934683Y-3453365D01*
G01X2935089Y-3452707D01*
G01X2935455Y-3452029D01*
G01X2935785Y-3451330D01*
G01X2936075Y-3450617D01*
G01X2936326Y-3449885D01*
G01X2936535Y-3449143D01*
G01X2936705Y-3448392D01*
G01X2936832Y-3447630D01*
G01X2936916Y-3446863D01*
G01X2936959Y-3446093D01*
G01X2936959Y-3445321D01*
G01X2936916Y-3444551D01*
G01X2936832Y-3443784D01*
G01X2936705Y-3443022D01*
G01X2936535Y-3442270D01*
G01X2936326Y-3441529D01*
G01X2936075Y-3440797D01*
G01X2935785Y-3440083D01*
G01X2935455Y-3439385D01*
G01X2935089Y-3438707D01*
G01X2934683Y-3438049D01*
G01X2934244Y-3437416D01*
G01X2933771Y-3436807D01*
G01X2933263Y-3436225D01*
G01X2932725Y-3435671D01*
G01X2932158Y-3435148D01*
G01X2931564Y-3434658D01*
G01X2930942Y-3434201D01*
G01X2930294Y-3433779D01*
G01X2929626Y-3433393D01*
G01X2928938Y-3433045D01*
G01X2928231Y-3432735D01*
G01X2927510Y-3432466D01*
G01X2926773Y-3432235D01*
G01X2926024Y-3432044D01*
G01X2925267Y-3431897D01*
G01X2924503Y-3431790D01*
G37*
G36*
G01X2360193Y-3431727D02*
G01X2359426Y-3431790D01*
G01X2358662Y-3431897D01*
G01X2357905Y-3432044D01*
G01X2357156Y-3432235D01*
G01X2356419Y-3432466D01*
G01X2355698Y-3432735D01*
G01X2354991Y-3433045D01*
G01X2354303Y-3433393D01*
G01X2353635Y-3433779D01*
G01X2352987Y-3434201D01*
G01X2352365Y-3434658D01*
G01X2351771Y-3435148D01*
G01X2351204Y-3435671D01*
G01X2350666Y-3436225D01*
G01X2350158Y-3436807D01*
G01X2349685Y-3437416D01*
G01X2349246Y-3438049D01*
G01X2348840Y-3438707D01*
G01X2348474Y-3439385D01*
G01X2348144Y-3440083D01*
G01X2347854Y-3440797D01*
G01X2347603Y-3441529D01*
G01X2347394Y-3442270D01*
G01X2347224Y-3443022D01*
G01X2347097Y-3443784D01*
G01X2347013Y-3444551D01*
G01X2346970Y-3445321D01*
G01X2346970Y-3446093D01*
G01X2347013Y-3446863D01*
G01X2347097Y-3447630D01*
G01X2347224Y-3448392D01*
G01X2347394Y-3449143D01*
G01X2347603Y-3449885D01*
G01X2347854Y-3450617D01*
G01X2348144Y-3451330D01*
G01X2348474Y-3452029D01*
G01X2348840Y-3452707D01*
G01X2349246Y-3453365D01*
G01X2349685Y-3453997D01*
G01X2350158Y-3454607D01*
G01X2350666Y-3455189D01*
G01X2351204Y-3455742D01*
G01X2351771Y-3456266D01*
G01X2352365Y-3456756D01*
G01X2352987Y-3457213D01*
G01X2353635Y-3457635D01*
G01X2354303Y-3458021D01*
G01X2354991Y-3458369D01*
G01X2355698Y-3458679D01*
G01X2356419Y-3458948D01*
G01X2357156Y-3459179D01*
G01X2357905Y-3459370D01*
G01X2358662Y-3459517D01*
G01X2359426Y-3459624D01*
G01X2360193Y-3459687D01*
G01X2360966Y-3459707D01*
G01X2422964Y-3459707D01*
G01X2423737Y-3459687D01*
G01X2424504Y-3459624D01*
G01X2425268Y-3459517D01*
G01X2426025Y-3459370D01*
G01X2426774Y-3459179D01*
G01X2427511Y-3458948D01*
G01X2428232Y-3458679D01*
G01X2428939Y-3458369D01*
G01X2429627Y-3458021D01*
G01X2430295Y-3457635D01*
G01X2430943Y-3457213D01*
G01X2431565Y-3456756D01*
G01X2432159Y-3456266D01*
G01X2432726Y-3455742D01*
G01X2433264Y-3455189D01*
G01X2433772Y-3454607D01*
G01X2434245Y-3453997D01*
G01X2434684Y-3453365D01*
G01X2435090Y-3452707D01*
G01X2435456Y-3452029D01*
G01X2435786Y-3451330D01*
G01X2436076Y-3450617D01*
G01X2436327Y-3449885D01*
G01X2436536Y-3449143D01*
G01X2436706Y-3448392D01*
G01X2436833Y-3447630D01*
G01X2436917Y-3446863D01*
G01X2436960Y-3446093D01*
G01X2436960Y-3445321D01*
G01X2436917Y-3444551D01*
G01X2436833Y-3443784D01*
G01X2436706Y-3443022D01*
G01X2436536Y-3442270D01*
G01X2436327Y-3441529D01*
G01X2436076Y-3440797D01*
G01X2435786Y-3440083D01*
G01X2435456Y-3439385D01*
G01X2435090Y-3438707D01*
G01X2434684Y-3438049D01*
G01X2434245Y-3437416D01*
G01X2433772Y-3436807D01*
G01X2433264Y-3436225D01*
G01X2432726Y-3435671D01*
G01X2432159Y-3435148D01*
G01X2431565Y-3434658D01*
G01X2430943Y-3434201D01*
G01X2430295Y-3433779D01*
G01X2429627Y-3433393D01*
G01X2428939Y-3433045D01*
G01X2428232Y-3432735D01*
G01X2427511Y-3432466D01*
G01X2426774Y-3432235D01*
G01X2426025Y-3432044D01*
G01X2425268Y-3431897D01*
G01X2424504Y-3431790D01*
G01X2423737Y-3431727D01*
G01X2422964Y-3431706D01*
G01X2360966Y-3431706D01*
G01X2360193Y-3431727D01*
G37*
G36*
G01X2924503Y-3481828D02*
G01X2923736Y-3481765D01*
G01X2922963Y-3481744D01*
G01X2860965Y-3481744D01*
G01X2860192Y-3481765D01*
G01X2859425Y-3481828D01*
G01X2858661Y-3481935D01*
G01X2857904Y-3482082D01*
G01X2857155Y-3482273D01*
G01X2856418Y-3482504D01*
G01X2855697Y-3482773D01*
G01X2854990Y-3483083D01*
G01X2854302Y-3483431D01*
G01X2853634Y-3483817D01*
G01X2852986Y-3484239D01*
G01X2852364Y-3484696D01*
G01X2851770Y-3485186D01*
G01X2851203Y-3485709D01*
G01X2850665Y-3486263D01*
G01X2850157Y-3486845D01*
G01X2849684Y-3487454D01*
G01X2849245Y-3488087D01*
G01X2848839Y-3488745D01*
G01X2848473Y-3489423D01*
G01X2848143Y-3490121D01*
G01X2847853Y-3490835D01*
G01X2847602Y-3491567D01*
G01X2847393Y-3492308D01*
G01X2847223Y-3493060D01*
G01X2847096Y-3493822D01*
G01X2847012Y-3494589D01*
G01X2846969Y-3495359D01*
G01X2846969Y-3496131D01*
G01X2847012Y-3496901D01*
G01X2847096Y-3497668D01*
G01X2847223Y-3498430D01*
G01X2847393Y-3499181D01*
G01X2847602Y-3499923D01*
G01X2847853Y-3500655D01*
G01X2848143Y-3501368D01*
G01X2848473Y-3502067D01*
G01X2848839Y-3502745D01*
G01X2849245Y-3503403D01*
G01X2849684Y-3504035D01*
G01X2850157Y-3504645D01*
G01X2850665Y-3505227D01*
G01X2851203Y-3505780D01*
G01X2851770Y-3506304D01*
G01X2852364Y-3506794D01*
G01X2852986Y-3507251D01*
G01X2853634Y-3507673D01*
G01X2854302Y-3508059D01*
G01X2854990Y-3508407D01*
G01X2855697Y-3508717D01*
G01X2856418Y-3508986D01*
G01X2857155Y-3509217D01*
G01X2857904Y-3509408D01*
G01X2858661Y-3509555D01*
G01X2859425Y-3509662D01*
G01X2860192Y-3509725D01*
G01X2860965Y-3509745D01*
G01X2922963Y-3509745D01*
G01X2923736Y-3509725D01*
G01X2924503Y-3509662D01*
G01X2925267Y-3509555D01*
G01X2926024Y-3509408D01*
G01X2926773Y-3509217D01*
G01X2927510Y-3508986D01*
G01X2928231Y-3508717D01*
G01X2928938Y-3508407D01*
G01X2929626Y-3508059D01*
G01X2930294Y-3507673D01*
G01X2930942Y-3507251D01*
G01X2931564Y-3506794D01*
G01X2932158Y-3506304D01*
G01X2932725Y-3505780D01*
G01X2933263Y-3505227D01*
G01X2933771Y-3504645D01*
G01X2934244Y-3504035D01*
G01X2934683Y-3503403D01*
G01X2935089Y-3502745D01*
G01X2935455Y-3502067D01*
G01X2935785Y-3501368D01*
G01X2936075Y-3500655D01*
G01X2936326Y-3499923D01*
G01X2936535Y-3499181D01*
G01X2936705Y-3498430D01*
G01X2936832Y-3497668D01*
G01X2936916Y-3496901D01*
G01X2936959Y-3496131D01*
G01X2936959Y-3495359D01*
G01X2936916Y-3494589D01*
G01X2936832Y-3493822D01*
G01X2936705Y-3493060D01*
G01X2936535Y-3492308D01*
G01X2936326Y-3491567D01*
G01X2936075Y-3490835D01*
G01X2935785Y-3490121D01*
G01X2935455Y-3489423D01*
G01X2935089Y-3488745D01*
G01X2934683Y-3488087D01*
G01X2934244Y-3487454D01*
G01X2933771Y-3486845D01*
G01X2933263Y-3486263D01*
G01X2932725Y-3485709D01*
G01X2932158Y-3485186D01*
G01X2931564Y-3484696D01*
G01X2930942Y-3484239D01*
G01X2930294Y-3483817D01*
G01X2929626Y-3483431D01*
G01X2928938Y-3483083D01*
G01X2928231Y-3482773D01*
G01X2927510Y-3482504D01*
G01X2926773Y-3482273D01*
G01X2926024Y-3482082D01*
G01X2925267Y-3481935D01*
G01X2924503Y-3481828D01*
G37*
G36*
G01X2360193Y-3481765D02*
G01X2359426Y-3481828D01*
G01X2358662Y-3481935D01*
G01X2357905Y-3482082D01*
G01X2357156Y-3482273D01*
G01X2356419Y-3482504D01*
G01X2355698Y-3482773D01*
G01X2354991Y-3483083D01*
G01X2354303Y-3483431D01*
G01X2353635Y-3483817D01*
G01X2352987Y-3484239D01*
G01X2352365Y-3484696D01*
G01X2351771Y-3485186D01*
G01X2351204Y-3485709D01*
G01X2350666Y-3486263D01*
G01X2350158Y-3486845D01*
G01X2349685Y-3487454D01*
G01X2349246Y-3488087D01*
G01X2348840Y-3488745D01*
G01X2348474Y-3489423D01*
G01X2348144Y-3490121D01*
G01X2347854Y-3490835D01*
G01X2347603Y-3491567D01*
G01X2347394Y-3492308D01*
G01X2347224Y-3493060D01*
G01X2347097Y-3493822D01*
G01X2347013Y-3494589D01*
G01X2346970Y-3495359D01*
G01X2346970Y-3496131D01*
G01X2347013Y-3496901D01*
G01X2347097Y-3497668D01*
G01X2347224Y-3498430D01*
G01X2347394Y-3499181D01*
G01X2347603Y-3499923D01*
G01X2347854Y-3500655D01*
G01X2348144Y-3501368D01*
G01X2348474Y-3502067D01*
G01X2348840Y-3502745D01*
G01X2349246Y-3503403D01*
G01X2349685Y-3504035D01*
G01X2350158Y-3504645D01*
G01X2350666Y-3505227D01*
G01X2351204Y-3505780D01*
G01X2351771Y-3506304D01*
G01X2352365Y-3506794D01*
G01X2352987Y-3507251D01*
G01X2353635Y-3507673D01*
G01X2354303Y-3508059D01*
G01X2354991Y-3508407D01*
G01X2355698Y-3508717D01*
G01X2356419Y-3508986D01*
G01X2357156Y-3509217D01*
G01X2357905Y-3509408D01*
G01X2358662Y-3509555D01*
G01X2359426Y-3509662D01*
G01X2360193Y-3509725D01*
G01X2360966Y-3509745D01*
G01X2422964Y-3509745D01*
G01X2423737Y-3509725D01*
G01X2424504Y-3509662D01*
G01X2425268Y-3509555D01*
G01X2426025Y-3509408D01*
G01X2426774Y-3509217D01*
G01X2427511Y-3508986D01*
G01X2428232Y-3508717D01*
G01X2428939Y-3508407D01*
G01X2429627Y-3508059D01*
G01X2430295Y-3507673D01*
G01X2430943Y-3507251D01*
G01X2431565Y-3506794D01*
G01X2432159Y-3506304D01*
G01X2432726Y-3505780D01*
G01X2433264Y-3505227D01*
G01X2433772Y-3504645D01*
G01X2434245Y-3504035D01*
G01X2434684Y-3503403D01*
G01X2435090Y-3502745D01*
G01X2435456Y-3502067D01*
G01X2435786Y-3501368D01*
G01X2436076Y-3500655D01*
G01X2436327Y-3499923D01*
G01X2436536Y-3499181D01*
G01X2436706Y-3498430D01*
G01X2436833Y-3497668D01*
G01X2436917Y-3496901D01*
G01X2436960Y-3496131D01*
G01X2436960Y-3495359D01*
G01X2436917Y-3494589D01*
G01X2436833Y-3493822D01*
G01X2436706Y-3493060D01*
G01X2436536Y-3492308D01*
G01X2436327Y-3491567D01*
G01X2436076Y-3490835D01*
G01X2435786Y-3490121D01*
G01X2435456Y-3489423D01*
G01X2435090Y-3488745D01*
G01X2434684Y-3488087D01*
G01X2434245Y-3487454D01*
G01X2433772Y-3486845D01*
G01X2433264Y-3486263D01*
G01X2432726Y-3485709D01*
G01X2432159Y-3485186D01*
G01X2431565Y-3484696D01*
G01X2430943Y-3484239D01*
G01X2430295Y-3483817D01*
G01X2429627Y-3483431D01*
G01X2428939Y-3483083D01*
G01X2428232Y-3482773D01*
G01X2427511Y-3482504D01*
G01X2426774Y-3482273D01*
G01X2426025Y-3482082D01*
G01X2425268Y-3481935D01*
G01X2424504Y-3481828D01*
G01X2423737Y-3481765D01*
G01X2422964Y-3481744D01*
G01X2360966Y-3481744D01*
G01X2360193Y-3481765D01*
G37*
G36*
G01X2643106Y-3550667D02*
G01X2642337Y-3550624D01*
G01X2641564Y-3550624D01*
G01X2640795Y-3550667D01*
G01X2640028Y-3550751D01*
G01X2639266Y-3550878D01*
G01X2638514Y-3551048D01*
G01X2637772Y-3551257D01*
G01X2637041Y-3551508D01*
G01X2636327Y-3551798D01*
G01X2635628Y-3552128D01*
G01X2634950Y-3552494D01*
G01X2634292Y-3552900D01*
G01X2633660Y-3553339D01*
G01X2633050Y-3553812D01*
G01X2632469Y-3554320D01*
G01X2631915Y-3554858D01*
G01X2631392Y-3555425D01*
G01X2630902Y-3556019D01*
G01X2630444Y-3556641D01*
G01X2630023Y-3557289D01*
G01X2629637Y-3557957D01*
G01X2629289Y-3558645D01*
G01X2628979Y-3559352D01*
G01X2628710Y-3560073D01*
G01X2628478Y-3560809D01*
G01X2628288Y-3561559D01*
G01X2628141Y-3562316D01*
G01X2628034Y-3563080D01*
G01X2627970Y-3563847D01*
G01X2627950Y-3564619D01*
G01X2627950Y-3626618D01*
G01X2627970Y-3627391D01*
G01X2628034Y-3628158D01*
G01X2628141Y-3628922D01*
G01X2628288Y-3629679D01*
G01X2628478Y-3630428D01*
G01X2628710Y-3631165D01*
G01X2628979Y-3631886D01*
G01X2629289Y-3632592D01*
G01X2629637Y-3633281D01*
G01X2630023Y-3633949D01*
G01X2630444Y-3634596D01*
G01X2630902Y-3635219D01*
G01X2631392Y-3635813D01*
G01X2631915Y-3636380D01*
G01X2632469Y-3636918D01*
G01X2633050Y-3637426D01*
G01X2633660Y-3637898D01*
G01X2634292Y-3638338D01*
G01X2634950Y-3638744D01*
G01X2635628Y-3639110D01*
G01X2636327Y-3639440D01*
G01X2637041Y-3639730D01*
G01X2637772Y-3639981D01*
G01X2638514Y-3640190D01*
G01X2639266Y-3640360D01*
G01X2640028Y-3640487D01*
G01X2640795Y-3640571D01*
G01X2641564Y-3640614D01*
G01X2642337Y-3640614D01*
G01X2643106Y-3640571D01*
G01X2643873Y-3640487D01*
G01X2644635Y-3640360D01*
G01X2645387Y-3640190D01*
G01X2646129Y-3639981D01*
G01X2646860Y-3639730D01*
G01X2647574Y-3639440D01*
G01X2648273Y-3639110D01*
G01X2648951Y-3638744D01*
G01X2649609Y-3638338D01*
G01X2650241Y-3637898D01*
G01X2650851Y-3637426D01*
G01X2651432Y-3636918D01*
G01X2651986Y-3636380D01*
G01X2652509Y-3635813D01*
G01X2653000Y-3635219D01*
G01X2653457Y-3634596D01*
G01X2653878Y-3633949D01*
G01X2654264Y-3633281D01*
G01X2654612Y-3632592D01*
G01X2654922Y-3631886D01*
G01X2655192Y-3631165D01*
G01X2655423Y-3630428D01*
G01X2655613Y-3629679D01*
G01X2655761Y-3628922D01*
G01X2655867Y-3628158D01*
G01X2655931Y-3627391D01*
G01X2655951Y-3626618D01*
G01X2655951Y-3564619D01*
G01X2655931Y-3563847D01*
G01X2655867Y-3563080D01*
G01X2655761Y-3562316D01*
G01X2655613Y-3561559D01*
G01X2655423Y-3560809D01*
G01X2655192Y-3560073D01*
G01X2654922Y-3559352D01*
G01X2654612Y-3558645D01*
G01X2654264Y-3557957D01*
G01X2653878Y-3557289D01*
G01X2653457Y-3556641D01*
G01X2653000Y-3556019D01*
G01X2652509Y-3555425D01*
G01X2651986Y-3554858D01*
G01X2651432Y-3554320D01*
G01X2650851Y-3553812D01*
G01X2650241Y-3553339D01*
G01X2649609Y-3552900D01*
G01X2648951Y-3552494D01*
G01X2648273Y-3552128D01*
G01X2647574Y-3551798D01*
G01X2646860Y-3551508D01*
G01X2646129Y-3551257D01*
G01X2645387Y-3551048D01*
G01X2644635Y-3550878D01*
G01X2643873Y-3550751D01*
G01X2643106Y-3550667D01*
G37*
G36*
G01X2743182Y-3550667D02*
G01X2742413Y-3550624D01*
G01X2741640Y-3550624D01*
G01X2740871Y-3550667D01*
G01X2740104Y-3550751D01*
G01X2739342Y-3550878D01*
G01X2738590Y-3551048D01*
G01X2737848Y-3551257D01*
G01X2737117Y-3551508D01*
G01X2736403Y-3551798D01*
G01X2735704Y-3552128D01*
G01X2735026Y-3552494D01*
G01X2734368Y-3552900D01*
G01X2733736Y-3553339D01*
G01X2733126Y-3553812D01*
G01X2732545Y-3554320D01*
G01X2731991Y-3554858D01*
G01X2731468Y-3555425D01*
G01X2730978Y-3556019D01*
G01X2730520Y-3556641D01*
G01X2730099Y-3557289D01*
G01X2729713Y-3557957D01*
G01X2729365Y-3558645D01*
G01X2729055Y-3559352D01*
G01X2728786Y-3560073D01*
G01X2728554Y-3560809D01*
G01X2728364Y-3561559D01*
G01X2728217Y-3562316D01*
G01X2728110Y-3563080D01*
G01X2728046Y-3563847D01*
G01X2728026Y-3564619D01*
G01X2728026Y-3626618D01*
G01X2728046Y-3627391D01*
G01X2728110Y-3628158D01*
G01X2728217Y-3628922D01*
G01X2728364Y-3629679D01*
G01X2728554Y-3630428D01*
G01X2728786Y-3631165D01*
G01X2729055Y-3631886D01*
G01X2729365Y-3632592D01*
G01X2729713Y-3633281D01*
G01X2730099Y-3633949D01*
G01X2730520Y-3634596D01*
G01X2730978Y-3635219D01*
G01X2731468Y-3635813D01*
G01X2731991Y-3636380D01*
G01X2732545Y-3636918D01*
G01X2733126Y-3637426D01*
G01X2733736Y-3637898D01*
G01X2734368Y-3638338D01*
G01X2735026Y-3638744D01*
G01X2735704Y-3639110D01*
G01X2736403Y-3639440D01*
G01X2737117Y-3639730D01*
G01X2737848Y-3639981D01*
G01X2738590Y-3640190D01*
G01X2739342Y-3640360D01*
G01X2740104Y-3640487D01*
G01X2740871Y-3640571D01*
G01X2741640Y-3640614D01*
G01X2742413Y-3640614D01*
G01X2743182Y-3640571D01*
G01X2743949Y-3640487D01*
G01X2744711Y-3640360D01*
G01X2745463Y-3640190D01*
G01X2746205Y-3639981D01*
G01X2746936Y-3639730D01*
G01X2747650Y-3639440D01*
G01X2748349Y-3639110D01*
G01X2749027Y-3638744D01*
G01X2749685Y-3638338D01*
G01X2750317Y-3637898D01*
G01X2750927Y-3637426D01*
G01X2751508Y-3636918D01*
G01X2752062Y-3636380D01*
G01X2752585Y-3635813D01*
G01X2753076Y-3635219D01*
G01X2753533Y-3634596D01*
G01X2753954Y-3633949D01*
G01X2754340Y-3633281D01*
G01X2754688Y-3632592D01*
G01X2754998Y-3631886D01*
G01X2755268Y-3631165D01*
G01X2755499Y-3630428D01*
G01X2755689Y-3629679D01*
G01X2755837Y-3628922D01*
G01X2755943Y-3628158D01*
G01X2756007Y-3627391D01*
G01X2756027Y-3626618D01*
G01X2756027Y-3564619D01*
G01X2756007Y-3563847D01*
G01X2755943Y-3563080D01*
G01X2755837Y-3562316D01*
G01X2755689Y-3561559D01*
G01X2755499Y-3560809D01*
G01X2755268Y-3560073D01*
G01X2754998Y-3559352D01*
G01X2754688Y-3558645D01*
G01X2754340Y-3557957D01*
G01X2753954Y-3557289D01*
G01X2753533Y-3556641D01*
G01X2753076Y-3556019D01*
G01X2752585Y-3555425D01*
G01X2752062Y-3554858D01*
G01X2751508Y-3554320D01*
G01X2750927Y-3553812D01*
G01X2750317Y-3553339D01*
G01X2749685Y-3552900D01*
G01X2749027Y-3552494D01*
G01X2748349Y-3552128D01*
G01X2747650Y-3551798D01*
G01X2746936Y-3551508D01*
G01X2746205Y-3551257D01*
G01X2745463Y-3551048D01*
G01X2744711Y-3550878D01*
G01X2743949Y-3550751D01*
G01X2743182Y-3550667D01*
G37*
G36*
G01X2541488Y-3550624D02*
G01X2540719Y-3550667D01*
G01X2539952Y-3550751D01*
G01X2539190Y-3550878D01*
G01X2538438Y-3551048D01*
G01X2537696Y-3551257D01*
G01X2536965Y-3551508D01*
G01X2536251Y-3551798D01*
G01X2535552Y-3552128D01*
G01X2534874Y-3552494D01*
G01X2534216Y-3552900D01*
G01X2533584Y-3553339D01*
G01X2532974Y-3553812D01*
G01X2532393Y-3554320D01*
G01X2531839Y-3554858D01*
G01X2531316Y-3555425D01*
G01X2530826Y-3556019D01*
G01X2530368Y-3556641D01*
G01X2529947Y-3557289D01*
G01X2529561Y-3557957D01*
G01X2529213Y-3558645D01*
G01X2528903Y-3559352D01*
G01X2528634Y-3560073D01*
G01X2528402Y-3560809D01*
G01X2528212Y-3561559D01*
G01X2528065Y-3562316D01*
G01X2527958Y-3563080D01*
G01X2527894Y-3563847D01*
G01X2527874Y-3564619D01*
G01X2527874Y-3626618D01*
G01X2527894Y-3627391D01*
G01X2527958Y-3628158D01*
G01X2528065Y-3628922D01*
G01X2528212Y-3629679D01*
G01X2528402Y-3630428D01*
G01X2528634Y-3631165D01*
G01X2528903Y-3631886D01*
G01X2529213Y-3632592D01*
G01X2529561Y-3633281D01*
G01X2529947Y-3633949D01*
G01X2530368Y-3634596D01*
G01X2530826Y-3635219D01*
G01X2531316Y-3635813D01*
G01X2531839Y-3636380D01*
G01X2532393Y-3636918D01*
G01X2532974Y-3637426D01*
G01X2533584Y-3637898D01*
G01X2534216Y-3638338D01*
G01X2534874Y-3638744D01*
G01X2535552Y-3639110D01*
G01X2536251Y-3639440D01*
G01X2536965Y-3639730D01*
G01X2537696Y-3639981D01*
G01X2538438Y-3640190D01*
G01X2539190Y-3640360D01*
G01X2539952Y-3640487D01*
G01X2540719Y-3640571D01*
G01X2541488Y-3640614D01*
G01X2542261Y-3640614D01*
G01X2543030Y-3640571D01*
G01X2543797Y-3640487D01*
G01X2544559Y-3640360D01*
G01X2545311Y-3640190D01*
G01X2546053Y-3639981D01*
G01X2546784Y-3639730D01*
G01X2547498Y-3639440D01*
G01X2548197Y-3639110D01*
G01X2548875Y-3638744D01*
G01X2549533Y-3638338D01*
G01X2550165Y-3637898D01*
G01X2550775Y-3637426D01*
G01X2551356Y-3636918D01*
G01X2551910Y-3636380D01*
G01X2552433Y-3635813D01*
G01X2552924Y-3635219D01*
G01X2553381Y-3634596D01*
G01X2553802Y-3633949D01*
G01X2554188Y-3633281D01*
G01X2554536Y-3632592D01*
G01X2554846Y-3631886D01*
G01X2555116Y-3631165D01*
G01X2555347Y-3630428D01*
G01X2555537Y-3629679D01*
G01X2555685Y-3628922D01*
G01X2555791Y-3628158D01*
G01X2555855Y-3627391D01*
G01X2555875Y-3626618D01*
G01X2555875Y-3564619D01*
G01X2555855Y-3563847D01*
G01X2555791Y-3563080D01*
G01X2555685Y-3562316D01*
G01X2555537Y-3561559D01*
G01X2555347Y-3560809D01*
G01X2555116Y-3560073D01*
G01X2554846Y-3559352D01*
G01X2554536Y-3558645D01*
G01X2554188Y-3557957D01*
G01X2553802Y-3557289D01*
G01X2553381Y-3556641D01*
G01X2552924Y-3556019D01*
G01X2552433Y-3555425D01*
G01X2551910Y-3554858D01*
G01X2551356Y-3554320D01*
G01X2550775Y-3553812D01*
G01X2550165Y-3553339D01*
G01X2549533Y-3552900D01*
G01X2548875Y-3552494D01*
G01X2548197Y-3552128D01*
G01X2547498Y-3551798D01*
G01X2546784Y-3551508D01*
G01X2546053Y-3551257D01*
G01X2545311Y-3551048D01*
G01X2544559Y-3550878D01*
G01X2543797Y-3550751D01*
G01X2543030Y-3550667D01*
G01X2542261Y-3550624D01*
G01X2541488Y-3550624D01*
G37*
G36*
G01X2691602Y-3550624D02*
G01X2690833Y-3550667D01*
G01X2690066Y-3550751D01*
G01X2689304Y-3550878D01*
G01X2688552Y-3551048D01*
G01X2687810Y-3551257D01*
G01X2687079Y-3551508D01*
G01X2686365Y-3551798D01*
G01X2685666Y-3552128D01*
G01X2684988Y-3552494D01*
G01X2684330Y-3552900D01*
G01X2683698Y-3553339D01*
G01X2683088Y-3553812D01*
G01X2682507Y-3554320D01*
G01X2681953Y-3554858D01*
G01X2681430Y-3555425D01*
G01X2680940Y-3556019D01*
G01X2680482Y-3556641D01*
G01X2680061Y-3557289D01*
G01X2679675Y-3557957D01*
G01X2679327Y-3558645D01*
G01X2679017Y-3559352D01*
G01X2678748Y-3560073D01*
G01X2678516Y-3560809D01*
G01X2678326Y-3561559D01*
G01X2678179Y-3562316D01*
G01X2678072Y-3563080D01*
G01X2678008Y-3563847D01*
G01X2677988Y-3564619D01*
G01X2677988Y-3626618D01*
G01X2678008Y-3627391D01*
G01X2678072Y-3628158D01*
G01X2678179Y-3628922D01*
G01X2678326Y-3629679D01*
G01X2678516Y-3630428D01*
G01X2678748Y-3631165D01*
G01X2679017Y-3631886D01*
G01X2679327Y-3632592D01*
G01X2679675Y-3633281D01*
G01X2680061Y-3633949D01*
G01X2680482Y-3634596D01*
G01X2680940Y-3635219D01*
G01X2681430Y-3635813D01*
G01X2681953Y-3636380D01*
G01X2682507Y-3636918D01*
G01X2683088Y-3637426D01*
G01X2683698Y-3637898D01*
G01X2684330Y-3638338D01*
G01X2684988Y-3638744D01*
G01X2685666Y-3639110D01*
G01X2686365Y-3639440D01*
G01X2687079Y-3639730D01*
G01X2687810Y-3639981D01*
G01X2688552Y-3640190D01*
G01X2689304Y-3640360D01*
G01X2690066Y-3640487D01*
G01X2690833Y-3640571D01*
G01X2691602Y-3640614D01*
G01X2692375Y-3640614D01*
G01X2693144Y-3640571D01*
G01X2693911Y-3640487D01*
G01X2694673Y-3640360D01*
G01X2695425Y-3640190D01*
G01X2696167Y-3639981D01*
G01X2696898Y-3639730D01*
G01X2697612Y-3639440D01*
G01X2698311Y-3639110D01*
G01X2698989Y-3638744D01*
G01X2699647Y-3638338D01*
G01X2700279Y-3637898D01*
G01X2700889Y-3637426D01*
G01X2701470Y-3636918D01*
G01X2702024Y-3636380D01*
G01X2702547Y-3635813D01*
G01X2703038Y-3635219D01*
G01X2703495Y-3634596D01*
G01X2703916Y-3633949D01*
G01X2704302Y-3633281D01*
G01X2704650Y-3632592D01*
G01X2704960Y-3631886D01*
G01X2705230Y-3631165D01*
G01X2705461Y-3630428D01*
G01X2705651Y-3629679D01*
G01X2705799Y-3628922D01*
G01X2705905Y-3628158D01*
G01X2705969Y-3627391D01*
G01X2705989Y-3626618D01*
G01X2705989Y-3564619D01*
G01X2705969Y-3563847D01*
G01X2705905Y-3563080D01*
G01X2705799Y-3562316D01*
G01X2705651Y-3561559D01*
G01X2705461Y-3560809D01*
G01X2705230Y-3560073D01*
G01X2704960Y-3559352D01*
G01X2704650Y-3558645D01*
G01X2704302Y-3557957D01*
G01X2703916Y-3557289D01*
G01X2703495Y-3556641D01*
G01X2703038Y-3556019D01*
G01X2702547Y-3555425D01*
G01X2702024Y-3554858D01*
G01X2701470Y-3554320D01*
G01X2700889Y-3553812D01*
G01X2700279Y-3553339D01*
G01X2699647Y-3552900D01*
G01X2698989Y-3552494D01*
G01X2698311Y-3552128D01*
G01X2697612Y-3551798D01*
G01X2696898Y-3551508D01*
G01X2696167Y-3551257D01*
G01X2695425Y-3551048D01*
G01X2694673Y-3550878D01*
G01X2693911Y-3550751D01*
G01X2693144Y-3550667D01*
G01X2692375Y-3550624D01*
G01X2691602Y-3550624D01*
G37*
G36*
G01X2791678Y-3550624D02*
G01X2790909Y-3550667D01*
G01X2790142Y-3550751D01*
G01X2789380Y-3550878D01*
G01X2788628Y-3551048D01*
G01X2787886Y-3551257D01*
G01X2787155Y-3551508D01*
G01X2786441Y-3551798D01*
G01X2785742Y-3552128D01*
G01X2785064Y-3552494D01*
G01X2784406Y-3552900D01*
G01X2783774Y-3553339D01*
G01X2783164Y-3553812D01*
G01X2782583Y-3554320D01*
G01X2782029Y-3554858D01*
G01X2781506Y-3555425D01*
G01X2781016Y-3556019D01*
G01X2780558Y-3556641D01*
G01X2780137Y-3557289D01*
G01X2779751Y-3557957D01*
G01X2779403Y-3558645D01*
G01X2779093Y-3559352D01*
G01X2778824Y-3560073D01*
G01X2778592Y-3560809D01*
G01X2778402Y-3561559D01*
G01X2778255Y-3562316D01*
G01X2778148Y-3563080D01*
G01X2778084Y-3563847D01*
G01X2778064Y-3564619D01*
G01X2778064Y-3626618D01*
G01X2778084Y-3627391D01*
G01X2778148Y-3628158D01*
G01X2778255Y-3628922D01*
G01X2778402Y-3629679D01*
G01X2778592Y-3630428D01*
G01X2778824Y-3631165D01*
G01X2779093Y-3631886D01*
G01X2779403Y-3632592D01*
G01X2779751Y-3633281D01*
G01X2780137Y-3633949D01*
G01X2780558Y-3634596D01*
G01X2781016Y-3635219D01*
G01X2781506Y-3635813D01*
G01X2782029Y-3636380D01*
G01X2782583Y-3636918D01*
G01X2783164Y-3637426D01*
G01X2783774Y-3637898D01*
G01X2784406Y-3638338D01*
G01X2785064Y-3638744D01*
G01X2785742Y-3639110D01*
G01X2786441Y-3639440D01*
G01X2787155Y-3639730D01*
G01X2787886Y-3639981D01*
G01X2788628Y-3640190D01*
G01X2789380Y-3640360D01*
G01X2790142Y-3640487D01*
G01X2790909Y-3640571D01*
G01X2791678Y-3640614D01*
G01X2792451Y-3640614D01*
G01X2793220Y-3640571D01*
G01X2793987Y-3640487D01*
G01X2794749Y-3640360D01*
G01X2795501Y-3640190D01*
G01X2796243Y-3639981D01*
G01X2796974Y-3639730D01*
G01X2797688Y-3639440D01*
G01X2798387Y-3639110D01*
G01X2799065Y-3638744D01*
G01X2799723Y-3638338D01*
G01X2800355Y-3637898D01*
G01X2800965Y-3637426D01*
G01X2801546Y-3636918D01*
G01X2802100Y-3636380D01*
G01X2802623Y-3635813D01*
G01X2803114Y-3635219D01*
G01X2803571Y-3634596D01*
G01X2803992Y-3633949D01*
G01X2804378Y-3633281D01*
G01X2804726Y-3632592D01*
G01X2805036Y-3631886D01*
G01X2805306Y-3631165D01*
G01X2805537Y-3630428D01*
G01X2805727Y-3629679D01*
G01X2805875Y-3628922D01*
G01X2805981Y-3628158D01*
G01X2806045Y-3627391D01*
G01X2806065Y-3626618D01*
G01X2806065Y-3564619D01*
G01X2806045Y-3563847D01*
G01X2805981Y-3563080D01*
G01X2805875Y-3562316D01*
G01X2805727Y-3561559D01*
G01X2805537Y-3560809D01*
G01X2805306Y-3560073D01*
G01X2805036Y-3559352D01*
G01X2804726Y-3558645D01*
G01X2804378Y-3557957D01*
G01X2803992Y-3557289D01*
G01X2803571Y-3556641D01*
G01X2803114Y-3556019D01*
G01X2802623Y-3555425D01*
G01X2802100Y-3554858D01*
G01X2801546Y-3554320D01*
G01X2800965Y-3553812D01*
G01X2800355Y-3553339D01*
G01X2799723Y-3552900D01*
G01X2799065Y-3552494D01*
G01X2798387Y-3552128D01*
G01X2797688Y-3551798D01*
G01X2796974Y-3551508D01*
G01X2796243Y-3551257D01*
G01X2795501Y-3551048D01*
G01X2794749Y-3550878D01*
G01X2793987Y-3550751D01*
G01X2793220Y-3550667D01*
G01X2792451Y-3550624D01*
G01X2791678Y-3550624D01*
G37*
G36*
G01X2491450Y-3550624D02*
G01X2490681Y-3550667D01*
G01X2489914Y-3550751D01*
G01X2489152Y-3550878D01*
G01X2488400Y-3551048D01*
G01X2487658Y-3551257D01*
G01X2486927Y-3551508D01*
G01X2486213Y-3551798D01*
G01X2485514Y-3552128D01*
G01X2484836Y-3552494D01*
G01X2484178Y-3552900D01*
G01X2483546Y-3553339D01*
G01X2482936Y-3553812D01*
G01X2482355Y-3554320D01*
G01X2481801Y-3554858D01*
G01X2481278Y-3555425D01*
G01X2480788Y-3556019D01*
G01X2480330Y-3556641D01*
G01X2479909Y-3557289D01*
G01X2479523Y-3557957D01*
G01X2479175Y-3558645D01*
G01X2478865Y-3559352D01*
G01X2478596Y-3560073D01*
G01X2478364Y-3560809D01*
G01X2478174Y-3561559D01*
G01X2478027Y-3562316D01*
G01X2477920Y-3563080D01*
G01X2477856Y-3563847D01*
G01X2477836Y-3564619D01*
G01X2477836Y-3626618D01*
G01X2477856Y-3627391D01*
G01X2477920Y-3628158D01*
G01X2478027Y-3628922D01*
G01X2478174Y-3629679D01*
G01X2478364Y-3630428D01*
G01X2478596Y-3631165D01*
G01X2478865Y-3631886D01*
G01X2479175Y-3632592D01*
G01X2479523Y-3633281D01*
G01X2479909Y-3633949D01*
G01X2480330Y-3634596D01*
G01X2480788Y-3635219D01*
G01X2481278Y-3635813D01*
G01X2481801Y-3636380D01*
G01X2482355Y-3636918D01*
G01X2482936Y-3637426D01*
G01X2483546Y-3637898D01*
G01X2484178Y-3638338D01*
G01X2484836Y-3638744D01*
G01X2485514Y-3639110D01*
G01X2486213Y-3639440D01*
G01X2486927Y-3639730D01*
G01X2487658Y-3639981D01*
G01X2488400Y-3640190D01*
G01X2489152Y-3640360D01*
G01X2489914Y-3640487D01*
G01X2490681Y-3640571D01*
G01X2491450Y-3640614D01*
G01X2492223Y-3640614D01*
G01X2492992Y-3640571D01*
G01X2493759Y-3640487D01*
G01X2494521Y-3640360D01*
G01X2495273Y-3640190D01*
G01X2496015Y-3639981D01*
G01X2496746Y-3639730D01*
G01X2497460Y-3639440D01*
G01X2498159Y-3639110D01*
G01X2498837Y-3638744D01*
G01X2499495Y-3638338D01*
G01X2500127Y-3637898D01*
G01X2500737Y-3637426D01*
G01X2501318Y-3636918D01*
G01X2501872Y-3636380D01*
G01X2502395Y-3635813D01*
G01X2502886Y-3635219D01*
G01X2503343Y-3634596D01*
G01X2503764Y-3633949D01*
G01X2504150Y-3633281D01*
G01X2504498Y-3632592D01*
G01X2504808Y-3631886D01*
G01X2505078Y-3631165D01*
G01X2505309Y-3630428D01*
G01X2505499Y-3629679D01*
G01X2505647Y-3628922D01*
G01X2505753Y-3628158D01*
G01X2505817Y-3627391D01*
G01X2505837Y-3626618D01*
G01X2505837Y-3564619D01*
G01X2505817Y-3563847D01*
G01X2505753Y-3563080D01*
G01X2505647Y-3562316D01*
G01X2505499Y-3561559D01*
G01X2505309Y-3560809D01*
G01X2505078Y-3560073D01*
G01X2504808Y-3559352D01*
G01X2504498Y-3558645D01*
G01X2504150Y-3557957D01*
G01X2503764Y-3557289D01*
G01X2503343Y-3556641D01*
G01X2502886Y-3556019D01*
G01X2502395Y-3555425D01*
G01X2501872Y-3554858D01*
G01X2501318Y-3554320D01*
G01X2500737Y-3553812D01*
G01X2500127Y-3553339D01*
G01X2499495Y-3552900D01*
G01X2498837Y-3552494D01*
G01X2498159Y-3552128D01*
G01X2497460Y-3551798D01*
G01X2496746Y-3551508D01*
G01X2496015Y-3551257D01*
G01X2495273Y-3551048D01*
G01X2494521Y-3550878D01*
G01X2493759Y-3550751D01*
G01X2492992Y-3550667D01*
G01X2492223Y-3550624D01*
G01X2491450Y-3550624D01*
G37*
G36*
G01X2593068Y-3550667D02*
G01X2592299Y-3550624D01*
G01X2591526Y-3550624D01*
G01X2590757Y-3550667D01*
G01X2589990Y-3550751D01*
G01X2589228Y-3550878D01*
G01X2588476Y-3551048D01*
G01X2587734Y-3551257D01*
G01X2587003Y-3551508D01*
G01X2586289Y-3551798D01*
G01X2585590Y-3552128D01*
G01X2584912Y-3552494D01*
G01X2584254Y-3552900D01*
G01X2583622Y-3553339D01*
G01X2583012Y-3553812D01*
G01X2582431Y-3554320D01*
G01X2581877Y-3554858D01*
G01X2581354Y-3555425D01*
G01X2580864Y-3556019D01*
G01X2580406Y-3556641D01*
G01X2579985Y-3557289D01*
G01X2579599Y-3557957D01*
G01X2579251Y-3558645D01*
G01X2578941Y-3559352D01*
G01X2578672Y-3560073D01*
G01X2578440Y-3560809D01*
G01X2578250Y-3561559D01*
G01X2578103Y-3562316D01*
G01X2577996Y-3563080D01*
G01X2577932Y-3563847D01*
G01X2577912Y-3564619D01*
G01X2577912Y-3626618D01*
G01X2577932Y-3627391D01*
G01X2577996Y-3628158D01*
G01X2578103Y-3628922D01*
G01X2578250Y-3629679D01*
G01X2578440Y-3630428D01*
G01X2578672Y-3631165D01*
G01X2578941Y-3631886D01*
G01X2579251Y-3632592D01*
G01X2579599Y-3633281D01*
G01X2579985Y-3633949D01*
G01X2580406Y-3634596D01*
G01X2580864Y-3635219D01*
G01X2581354Y-3635813D01*
G01X2581877Y-3636380D01*
G01X2582431Y-3636918D01*
G01X2583012Y-3637426D01*
G01X2583622Y-3637898D01*
G01X2584254Y-3638338D01*
G01X2584912Y-3638744D01*
G01X2585590Y-3639110D01*
G01X2586289Y-3639440D01*
G01X2587003Y-3639730D01*
G01X2587734Y-3639981D01*
G01X2588476Y-3640190D01*
G01X2589228Y-3640360D01*
G01X2589990Y-3640487D01*
G01X2590757Y-3640571D01*
G01X2591526Y-3640614D01*
G01X2592299Y-3640614D01*
G01X2593068Y-3640571D01*
G01X2593835Y-3640487D01*
G01X2594597Y-3640360D01*
G01X2595349Y-3640190D01*
G01X2596091Y-3639981D01*
G01X2596822Y-3639730D01*
G01X2597536Y-3639440D01*
G01X2598235Y-3639110D01*
G01X2598913Y-3638744D01*
G01X2599571Y-3638338D01*
G01X2600203Y-3637898D01*
G01X2600813Y-3637426D01*
G01X2601394Y-3636918D01*
G01X2601948Y-3636380D01*
G01X2602471Y-3635813D01*
G01X2602962Y-3635219D01*
G01X2603419Y-3634596D01*
G01X2603840Y-3633949D01*
G01X2604226Y-3633281D01*
G01X2604574Y-3632592D01*
G01X2604884Y-3631886D01*
G01X2605154Y-3631165D01*
G01X2605385Y-3630428D01*
G01X2605575Y-3629679D01*
G01X2605723Y-3628922D01*
G01X2605829Y-3628158D01*
G01X2605893Y-3627391D01*
G01X2605913Y-3626618D01*
G01X2605913Y-3564619D01*
G01X2605893Y-3563847D01*
G01X2605829Y-3563080D01*
G01X2605723Y-3562316D01*
G01X2605575Y-3561559D01*
G01X2605385Y-3560809D01*
G01X2605154Y-3560073D01*
G01X2604884Y-3559352D01*
G01X2604574Y-3558645D01*
G01X2604226Y-3557957D01*
G01X2603840Y-3557289D01*
G01X2603419Y-3556641D01*
G01X2602962Y-3556019D01*
G01X2602471Y-3555425D01*
G01X2601948Y-3554858D01*
G01X2601394Y-3554320D01*
G01X2600813Y-3553812D01*
G01X2600203Y-3553339D01*
G01X2599571Y-3552900D01*
G01X2598913Y-3552494D01*
G01X2598235Y-3552128D01*
G01X2597536Y-3551798D01*
G01X2596822Y-3551508D01*
G01X2596091Y-3551257D01*
G01X2595349Y-3551048D01*
G01X2594597Y-3550878D01*
G01X2593835Y-3550751D01*
G01X2593068Y-3550667D01*
G37*
G36*
G01X1132766Y-3538969D02*
G01X1018766Y-3538969D01*
G01X1018766Y-3568969D01*
G01X1132766Y-3568969D01*
G01X1132766Y-3538969D01*
G37*
G36*
G01X1132766Y-3238995D02*
G01X1018766Y-3238995D01*
G01X1018766Y-3268995D01*
G01X1132766Y-3268995D01*
G01X1132766Y-3238995D01*
G37*
G36*
G01X1018677Y-3133999D02*
G01X1132677Y-3133999D01*
G01X1132677Y-3083999D01*
G01X1018677Y-3083999D01*
G01X1018677Y-3133999D01*
G37*
G36*
G01X1018677Y-3774001D02*
G01X1132677Y-3774001D01*
G01X1132677Y-3723998D01*
G01X1018677Y-3723998D01*
G01X1018677Y-3774001D01*
G37*
G36*
G01X1132677Y-3163999D02*
G01X1018677Y-3163999D01*
G01X1018677Y-3214002D01*
G01X1132677Y-3214002D01*
G01X1132677Y-3163999D01*
G37*
G36*
G01X1018677Y-3694001D02*
G01X1132677Y-3694001D01*
G01X1132677Y-3643998D01*
G01X1018677Y-3643998D01*
G01X1018677Y-3694001D01*
G37*
G36*
G01X1018664Y-3419008D02*
G01X1132665Y-3419008D01*
G01X1132665Y-3389008D01*
G01X1018664Y-3389008D01*
G01X1018664Y-3419008D01*
G37*
G36*
G01X1018664Y-3468995D02*
G01X1132665Y-3468995D01*
G01X1132665Y-3438995D01*
G01X1018664Y-3438995D01*
G01X1018664Y-3468995D01*
G37*
G36*
G01X1018664Y-3519007D02*
G01X1132665Y-3519007D01*
G01X1132665Y-3489007D01*
G01X1018664Y-3489007D01*
G01X1018664Y-3519007D01*
G37*
G36*
G01X1132665Y-3338995D02*
G01X1018664Y-3338995D01*
G01X1018664Y-3368995D01*
G01X1132665Y-3368995D01*
G01X1132665Y-3338995D01*
G37*
G36*
G01X1132665Y-3289008D02*
G01X1018664Y-3289008D01*
G01X1018664Y-3319008D01*
G01X1132665Y-3319008D01*
G01X1132665Y-3289008D01*
G37*
G36*
G01X1018664Y-3619007D02*
G01X1132665Y-3619007D01*
G01X1132665Y-3589007D01*
G01X1018664Y-3589007D01*
G01X1018664Y-3619007D01*
G37*
G36*
G01X1120518Y-3864740D02*
G01X1120643Y-3862250D01*
G01X1120643Y-3859756D01*
G01X1120518Y-3857267D01*
G01X1120270Y-3854785D01*
G01X1119899Y-3852321D01*
G01X1119403Y-3849878D01*
G01X1118789Y-3847462D01*
G01X1118055Y-3845080D01*
G01X1117201Y-3842736D01*
G01X1116233Y-3840439D01*
G01X1115151Y-3838191D01*
G01X1113960Y-3836005D01*
G01X1112660Y-3833876D01*
G01X1111255Y-3831816D01*
G01X1109749Y-3829830D01*
G01X1108146Y-3827920D01*
G01X1106452Y-3826091D01*
G01X1104666Y-3824351D01*
G01X1102797Y-3822700D01*
G01X1100849Y-3821146D01*
G01X1098824Y-3819690D01*
G01X1096729Y-3818339D01*
G01X1094570Y-3817092D01*
G01X1092352Y-3815954D01*
G01X1090079Y-3814930D01*
G01X1087760Y-3814018D01*
G01X1085395Y-3813226D01*
G01X1082995Y-3812550D01*
G01X1080567Y-3811994D01*
G01X1078111Y-3811562D01*
G01X1075637Y-3811252D01*
G01X1073150Y-3811064D01*
G01X1070658Y-3811003D01*
G01X970658Y-3811003D01*
G01X968167Y-3811064D01*
G01X965680Y-3811252D01*
G01X963206Y-3811562D01*
G01X960750Y-3811994D01*
G01X958322Y-3812550D01*
G01X955921Y-3813226D01*
G01X953557Y-3814018D01*
G01X951238Y-3814930D01*
G01X948964Y-3815954D01*
G01X946747Y-3817092D01*
G01X944588Y-3818339D01*
G01X942492Y-3819690D01*
G01X940468Y-3821146D01*
G01X938520Y-3822700D01*
G01X936650Y-3824351D01*
G01X934865Y-3826091D01*
G01X933171Y-3827920D01*
G01X931568Y-3829830D01*
G01X930062Y-3831816D01*
G01X928657Y-3833876D01*
G01X927357Y-3836005D01*
G01X926165Y-3838191D01*
G01X925083Y-3840439D01*
G01X924116Y-3842736D01*
G01X923262Y-3845080D01*
G01X922528Y-3847462D01*
G01X921913Y-3849878D01*
G01X921418Y-3852321D01*
G01X921047Y-3854785D01*
G01X920798Y-3857267D01*
G01X920674Y-3859756D01*
G01X920674Y-3862250D01*
G01X920798Y-3864740D01*
G01X921047Y-3867221D01*
G01X921418Y-3869685D01*
G01X921913Y-3872128D01*
G01X922528Y-3874544D01*
G01X923262Y-3876926D01*
G01X924116Y-3879271D01*
G01X925083Y-3881567D01*
G01X926165Y-3883815D01*
G01X927357Y-3886004D01*
G01X928657Y-3888130D01*
G01X930062Y-3890190D01*
G01X931568Y-3892177D01*
G01X933171Y-3894087D01*
G01X934865Y-3895915D01*
G01X936650Y-3897655D01*
G01X938520Y-3899306D01*
G01X940468Y-3900861D01*
G01X942492Y-3902316D01*
G01X944588Y-3903668D01*
G01X946747Y-3904915D01*
G01X948964Y-3906053D01*
G01X951238Y-3907076D01*
G01X953557Y-3907988D01*
G01X955921Y-3908781D01*
G01X958322Y-3909456D01*
G01X960750Y-3910012D01*
G01X963206Y-3910444D01*
G01X965680Y-3910754D01*
G01X968167Y-3910942D01*
G01X970658Y-3911003D01*
G01X1070658Y-3911003D01*
G01X1073150Y-3910942D01*
G01X1075637Y-3910754D01*
G01X1078111Y-3910444D01*
G01X1080567Y-3910012D01*
G01X1082995Y-3909456D01*
G01X1085395Y-3908781D01*
G01X1087760Y-3907988D01*
G01X1090079Y-3907076D01*
G01X1092352Y-3906053D01*
G01X1094570Y-3904915D01*
G01X1096729Y-3903668D01*
G01X1098824Y-3902316D01*
G01X1100849Y-3900861D01*
G01X1102797Y-3899306D01*
G01X1104666Y-3897655D01*
G01X1106452Y-3895915D01*
G01X1108146Y-3894087D01*
G01X1109749Y-3892177D01*
G01X1111255Y-3890190D01*
G01X1112660Y-3888130D01*
G01X1113960Y-3886004D01*
G01X1115151Y-3883815D01*
G01X1116233Y-3881567D01*
G01X1117201Y-3879271D01*
G01X1118055Y-3876926D01*
G01X1118789Y-3874544D01*
G01X1119403Y-3872128D01*
G01X1119899Y-3869685D01*
G01X1120270Y-3867221D01*
G01X1120518Y-3864740D01*
G37*
G36*
G01X1120618Y-2995750D02*
G01X1120493Y-2993260D01*
G01X1120244Y-2990779D01*
G01X1119873Y-2988315D01*
G01X1119378Y-2985872D01*
G01X1118763Y-2983456D01*
G01X1118029Y-2981074D01*
G01X1117176Y-2978729D01*
G01X1116208Y-2976433D01*
G01X1115126Y-2974185D01*
G01X1113935Y-2971998D01*
G01X1112634Y-2969870D01*
G01X1111230Y-2967810D01*
G01X1109723Y-2965823D01*
G01X1108121Y-2963913D01*
G01X1106427Y-2962084D01*
G01X1104641Y-2960345D01*
G01X1102771Y-2958694D01*
G01X1100823Y-2957139D01*
G01X1098799Y-2955684D01*
G01X1096703Y-2954332D01*
G01X1094544Y-2953085D01*
G01X1092327Y-2951947D01*
G01X1090054Y-2950924D01*
G01X1087735Y-2950012D01*
G01X1085370Y-2949219D01*
G01X1082970Y-2948544D01*
G01X1080541Y-2947987D01*
G01X1078085Y-2947556D01*
G01X1075611Y-2947246D01*
G01X1073125Y-2947058D01*
G01X1070633Y-2946997D01*
G01X970633Y-2946997D01*
G01X968141Y-2947058D01*
G01X965655Y-2947246D01*
G01X963181Y-2947556D01*
G01X960725Y-2947987D01*
G01X958296Y-2948544D01*
G01X955896Y-2949219D01*
G01X953531Y-2950012D01*
G01X951212Y-2950924D01*
G01X948939Y-2951947D01*
G01X946722Y-2953085D01*
G01X944563Y-2954332D01*
G01X942467Y-2955684D01*
G01X940443Y-2957139D01*
G01X938494Y-2958694D01*
G01X936625Y-2960345D01*
G01X934839Y-2962084D01*
G01X933145Y-2963913D01*
G01X931542Y-2965823D01*
G01X930036Y-2967810D01*
G01X928632Y-2969870D01*
G01X927331Y-2971998D01*
G01X926140Y-2974185D01*
G01X925058Y-2976433D01*
G01X924090Y-2978729D01*
G01X923237Y-2981074D01*
G01X922503Y-2983456D01*
G01X921888Y-2985872D01*
G01X921393Y-2988315D01*
G01X921022Y-2990779D01*
G01X920773Y-2993260D01*
G01X920648Y-2995750D01*
G01X920648Y-2998244D01*
G01X920773Y-3000733D01*
G01X921022Y-3003215D01*
G01X921393Y-3005679D01*
G01X921888Y-3008122D01*
G01X922503Y-3010538D01*
G01X923237Y-3012920D01*
G01X924090Y-3015264D01*
G01X925058Y-3017561D01*
G01X926140Y-3019809D01*
G01X927331Y-3021998D01*
G01X928632Y-3024124D01*
G01X930036Y-3026184D01*
G01X931542Y-3028170D01*
G01X933145Y-3030080D01*
G01X934839Y-3031909D01*
G01X936625Y-3033649D01*
G01X938494Y-3035300D01*
G01X940443Y-3036854D01*
G01X942467Y-3038310D01*
G01X944563Y-3039661D01*
G01X946722Y-3040908D01*
G01X948939Y-3042046D01*
G01X951212Y-3043070D01*
G01X953531Y-3043982D01*
G01X955896Y-3044774D01*
G01X958296Y-3045450D01*
G01X960725Y-3046006D01*
G01X963181Y-3046438D01*
G01X965655Y-3046748D01*
G01X968141Y-3046936D01*
G01X970633Y-3046997D01*
G01X1070633Y-3046997D01*
G01X1073125Y-3046936D01*
G01X1075611Y-3046748D01*
G01X1078085Y-3046438D01*
G01X1080541Y-3046006D01*
G01X1082970Y-3045450D01*
G01X1085370Y-3044774D01*
G01X1087735Y-3043982D01*
G01X1090054Y-3043070D01*
G01X1092327Y-3042046D01*
G01X1094544Y-3040908D01*
G01X1096703Y-3039661D01*
G01X1098799Y-3038310D01*
G01X1100823Y-3036854D01*
G01X1102771Y-3035300D01*
G01X1104641Y-3033649D01*
G01X1106427Y-3031909D01*
G01X1108121Y-3030080D01*
G01X1109723Y-3028170D01*
G01X1111230Y-3026184D01*
G01X1112634Y-3024124D01*
G01X1113935Y-3021998D01*
G01X1115126Y-3019809D01*
G01X1116208Y-3017561D01*
G01X1117176Y-3015264D01*
G01X1118029Y-3012920D01*
G01X1118763Y-3010538D01*
G01X1119378Y-3008122D01*
G01X1119873Y-3005679D01*
G01X1120244Y-3003215D01*
G01X1120493Y-3000733D01*
G01X1120618Y-2998244D01*
G01X1120618Y-2995750D01*
G37*
G36*
G01X690504Y-3864740D02*
G01X690629Y-3862250D01*
G01X690629Y-3859756D01*
G01X690504Y-3857267D01*
G01X690255Y-3854785D01*
G01X689884Y-3852321D01*
G01X689389Y-3849878D01*
G01X688774Y-3847462D01*
G01X688040Y-3845080D01*
G01X687187Y-3842736D01*
G01X686219Y-3840439D01*
G01X685137Y-3838191D01*
G01X683946Y-3836005D01*
G01X682645Y-3833876D01*
G01X681241Y-3831816D01*
G01X679734Y-3829830D01*
G01X678132Y-3827920D01*
G01X676438Y-3826091D01*
G01X674652Y-3824351D01*
G01X672783Y-3822700D01*
G01X670834Y-3821146D01*
G01X668810Y-3819690D01*
G01X666714Y-3818339D01*
G01X664555Y-3817092D01*
G01X662338Y-3815954D01*
G01X660065Y-3814930D01*
G01X657746Y-3814018D01*
G01X655381Y-3813226D01*
G01X652981Y-3812550D01*
G01X650552Y-3811994D01*
G01X648096Y-3811562D01*
G01X645622Y-3811252D01*
G01X643136Y-3811064D01*
G01X640644Y-3811003D01*
G01X560644Y-3811003D01*
G01X558152Y-3811064D01*
G01X555666Y-3811252D01*
G01X553192Y-3811562D01*
G01X550736Y-3811994D01*
G01X548307Y-3812550D01*
G01X545907Y-3813226D01*
G01X543542Y-3814018D01*
G01X541223Y-3814930D01*
G01X538950Y-3815954D01*
G01X536732Y-3817092D01*
G01X534573Y-3818339D01*
G01X532478Y-3819690D01*
G01X530454Y-3821146D01*
G01X528505Y-3822700D01*
G01X526636Y-3824351D01*
G01X524850Y-3826091D01*
G01X523156Y-3827920D01*
G01X521553Y-3829830D01*
G01X520047Y-3831816D01*
G01X518643Y-3833876D01*
G01X517342Y-3836005D01*
G01X516151Y-3838191D01*
G01X515069Y-3840439D01*
G01X514101Y-3842736D01*
G01X513248Y-3845080D01*
G01X512514Y-3847462D01*
G01X511899Y-3849878D01*
G01X511404Y-3852321D01*
G01X511033Y-3854785D01*
G01X510784Y-3857267D01*
G01X510659Y-3859756D01*
G01X510659Y-3862250D01*
G01X510784Y-3864740D01*
G01X511033Y-3867221D01*
G01X511404Y-3869685D01*
G01X511899Y-3872128D01*
G01X512514Y-3874544D01*
G01X513248Y-3876926D01*
G01X514101Y-3879271D01*
G01X515069Y-3881567D01*
G01X516151Y-3883815D01*
G01X517342Y-3886004D01*
G01X518643Y-3888130D01*
G01X520047Y-3890190D01*
G01X521553Y-3892177D01*
G01X523156Y-3894087D01*
G01X524850Y-3895915D01*
G01X526636Y-3897655D01*
G01X528505Y-3899306D01*
G01X530454Y-3900861D01*
G01X532478Y-3902316D01*
G01X534573Y-3903668D01*
G01X536732Y-3904915D01*
G01X538950Y-3906053D01*
G01X541223Y-3907076D01*
G01X543542Y-3907988D01*
G01X545907Y-3908781D01*
G01X548307Y-3909456D01*
G01X550736Y-3910012D01*
G01X553192Y-3910444D01*
G01X555666Y-3910754D01*
G01X558152Y-3910942D01*
G01X560644Y-3911003D01*
G01X640644Y-3911003D01*
G01X643136Y-3910942D01*
G01X645622Y-3910754D01*
G01X648096Y-3910444D01*
G01X650552Y-3910012D01*
G01X652981Y-3909456D01*
G01X655381Y-3908781D01*
G01X657746Y-3907988D01*
G01X660065Y-3907076D01*
G01X662338Y-3906053D01*
G01X664555Y-3904915D01*
G01X666714Y-3903668D01*
G01X668810Y-3902316D01*
G01X670834Y-3900861D01*
G01X672783Y-3899306D01*
G01X674652Y-3897655D01*
G01X676438Y-3895915D01*
G01X678132Y-3894087D01*
G01X679734Y-3892177D01*
G01X681241Y-3890190D01*
G01X682645Y-3888130D01*
G01X683946Y-3886004D01*
G01X685137Y-3883815D01*
G01X686219Y-3881567D01*
G01X687187Y-3879271D01*
G01X688040Y-3876926D01*
G01X688774Y-3874544D01*
G01X689389Y-3872128D01*
G01X689884Y-3869685D01*
G01X690255Y-3867221D01*
G01X690504Y-3864740D01*
G37*
G36*
G01X690629Y-2995750D02*
G01X690504Y-2993260D01*
G01X690255Y-2990779D01*
G01X689884Y-2988315D01*
G01X689389Y-2985872D01*
G01X688774Y-2983456D01*
G01X688040Y-2981074D01*
G01X687187Y-2978729D01*
G01X686219Y-2976433D01*
G01X685137Y-2974185D01*
G01X683946Y-2971998D01*
G01X682645Y-2969870D01*
G01X681241Y-2967810D01*
G01X679734Y-2965823D01*
G01X678132Y-2963913D01*
G01X676438Y-2962084D01*
G01X674652Y-2960345D01*
G01X672783Y-2958694D01*
G01X670834Y-2957139D01*
G01X668810Y-2955684D01*
G01X666714Y-2954332D01*
G01X664555Y-2953085D01*
G01X662338Y-2951947D01*
G01X660065Y-2950924D01*
G01X657746Y-2950012D01*
G01X655381Y-2949219D01*
G01X652981Y-2948544D01*
G01X650552Y-2947987D01*
G01X648096Y-2947556D01*
G01X645622Y-2947246D01*
G01X643136Y-2947058D01*
G01X640644Y-2946997D01*
G01X560644Y-2946997D01*
G01X558152Y-2947058D01*
G01X555666Y-2947246D01*
G01X553192Y-2947556D01*
G01X550736Y-2947987D01*
G01X548307Y-2948544D01*
G01X545907Y-2949219D01*
G01X543542Y-2950012D01*
G01X541223Y-2950924D01*
G01X538950Y-2951947D01*
G01X536732Y-2953085D01*
G01X534573Y-2954332D01*
G01X532478Y-2955684D01*
G01X530454Y-2957139D01*
G01X528505Y-2958694D01*
G01X526636Y-2960345D01*
G01X524850Y-2962084D01*
G01X523156Y-2963913D01*
G01X521553Y-2965823D01*
G01X520047Y-2967810D01*
G01X518643Y-2969870D01*
G01X517342Y-2971998D01*
G01X516151Y-2974185D01*
G01X515069Y-2976433D01*
G01X514101Y-2978729D01*
G01X513248Y-2981074D01*
G01X512514Y-2983456D01*
G01X511899Y-2985872D01*
G01X511404Y-2988315D01*
G01X511033Y-2990779D01*
G01X510784Y-2993260D01*
G01X510659Y-2995750D01*
G01X510659Y-2998244D01*
G01X510784Y-3000733D01*
G01X511033Y-3003215D01*
G01X511404Y-3005679D01*
G01X511899Y-3008122D01*
G01X512514Y-3010538D01*
G01X513248Y-3012920D01*
G01X514101Y-3015264D01*
G01X515069Y-3017561D01*
G01X516151Y-3019809D01*
G01X517342Y-3021998D01*
G01X518643Y-3024124D01*
G01X520047Y-3026184D01*
G01X521553Y-3028170D01*
G01X523156Y-3030080D01*
G01X524850Y-3031909D01*
G01X526636Y-3033649D01*
G01X528505Y-3035300D01*
G01X530454Y-3036854D01*
G01X532478Y-3038310D01*
G01X534573Y-3039661D01*
G01X536732Y-3040908D01*
G01X538950Y-3042046D01*
G01X541223Y-3043070D01*
G01X543542Y-3043982D01*
G01X545907Y-3044774D01*
G01X548307Y-3045450D01*
G01X550736Y-3046006D01*
G01X553192Y-3046438D01*
G01X555666Y-3046748D01*
G01X558152Y-3046936D01*
G01X560644Y-3046997D01*
G01X640644Y-3046997D01*
G01X643136Y-3046936D01*
G01X645622Y-3046748D01*
G01X648096Y-3046438D01*
G01X650552Y-3046006D01*
G01X652981Y-3045450D01*
G01X655381Y-3044774D01*
G01X657746Y-3043982D01*
G01X660065Y-3043070D01*
G01X662338Y-3042046D01*
G01X664555Y-3040908D01*
G01X666714Y-3039661D01*
G01X668810Y-3038310D01*
G01X670834Y-3036854D01*
G01X672783Y-3035300D01*
G01X674652Y-3033649D01*
G01X676438Y-3031909D01*
G01X678132Y-3030080D01*
G01X679734Y-3028170D01*
G01X681241Y-3026184D01*
G01X682645Y-3024124D01*
G01X683946Y-3021998D01*
G01X685137Y-3019809D01*
G01X686219Y-3017561D01*
G01X687187Y-3015264D01*
G01X688040Y-3012920D01*
G01X688774Y-3010538D01*
G01X689389Y-3008122D01*
G01X689884Y-3005679D01*
G01X690255Y-3003215D01*
G01X690504Y-3000733D01*
G01X690629Y-2998244D01*
G01X690629Y-2995750D01*
G37*

G04 Pad Start*
G54D10*
G01X2124812Y-3949700D03*
G01X2040788Y-3949700D03*
G54D11*
G01X7392695Y-4081805D03*
G01X7392695Y-4241800D03*
G01X7392695Y-4401795D03*
G01X7872705Y-4401795D03*
G01X7872705Y-4241800D03*
G01X7872705Y-4081805D03*
G01X7392695Y-2722905D03*
G01X7392695Y-2882900D03*
G01X7392695Y-3042895D03*
G01X7872705Y-3042895D03*
G01X7872705Y-2882900D03*
G01X7872705Y-2722905D03*
G01X7430795Y-1173505D03*
G01X7430795Y-1333500D03*
G01X7430795Y-1493495D03*
G01X7910805Y-1493495D03*
G01X7910805Y-1333500D03*
G01X7910805Y-1173505D03*
G54D12*
G01X3671900Y-3473704D03*
G01X3671900Y-3663696D03*
G01X3871900Y-3568700D03*
G54D13*
G01X4522889Y-2236648D03*
G01X4522889Y-2363648D03*
G01X4522889Y-2490648D03*
G01X4522889Y-2617648D03*
G01X4522889Y-2744648D03*
G01X4522889Y-2871648D03*
G01X4522889Y-2998648D03*
G01X4522889Y-3125648D03*
G01X4522889Y-3252648D03*
G01X4522889Y-3379648D03*
G01X4522889Y-3506648D03*
G01X4522889Y-3633648D03*
G01X4522889Y-3760648D03*
G01X4522889Y-3887648D03*
G54D14*
G01X4851413Y-4037152D03*
G01X4978413Y-4037152D03*
G01X5105413Y-4037152D03*
G01X5232413Y-4037152D03*
G01X5359413Y-4037152D03*
G01X5486413Y-4037152D03*
G01X5613413Y-4037152D03*
G01X5740413Y-4037152D03*
G01X5867413Y-4037152D03*
G01X5994413Y-4037152D03*
G54D13*
G01X6322911Y-3887648D03*
G01X6322911Y-3760648D03*
G01X6322911Y-3633648D03*
G01X6322911Y-3506648D03*
G01X6322911Y-3379648D03*
G01X6322911Y-3252648D03*
G01X6322911Y-3125648D03*
G01X6322911Y-2998648D03*
G01X6322911Y-2871648D03*
G01X6322911Y-2744648D03*
G01X6322911Y-2617648D03*
G01X6322911Y-2490648D03*
G01X6322911Y-2363648D03*
G01X6322911Y-2236648D03*
G54D16*
G01X5272875Y-3004744D03*
G01X5132896Y-3004744D03*
G01X5412905Y-3004744D03*
G01X5412905Y-2864739D03*
G01X5272900Y-2864739D03*
G01X5132896Y-2864739D03*
G01X5132896Y-3144749D03*
G01X5272900Y-3144749D03*
G01X5412905Y-3144749D03*
G04 Pad End*

M02*

