;TYPE=PLATED
;Layer: PTH_Through
;EasyEDA Pro v2.2.46.11, 2026-04-08 09:24:07
;Gerber Generator version 0.3
M48
METRIC,LZ,0000.00000
;Hole size 1 = 0.30500 METRIC
T01C0.30500
;Hole size 2 = 0.60000 METRIC
T02C0.60000
;Hole size 3 = 1.10002 METRIC
T03C1.10002
;Hole size 4 = 1.20000 METRIC
T04C1.20000
%
G05
G90
T01
X13.081Y-34.04386
X13.081Y-35.04006
X22.987Y-38.735
X24.638Y-37.973
X22.098Y-32.131
X22.098Y-32.893
X22.098Y-34.29
X22.098Y-35.433
X60.198Y-37.338
X60.198Y-27.686
X59.817Y-26.289
X33.02Y-35.052
X38.227Y-24.003
X70.612Y-30.734
T02
X10.75638Y-29.97002G85X9.65638Y-29.97002
X10.75653Y-38.60998G85X9.65653Y-38.60998
X6.40646Y-38.60998G85X5.60647Y-38.60998
X6.40646Y-29.97002G85X5.60647Y-29.97002
T03
X30.77388Y-46.10087
X35.77387Y-46.10087
T04
X35.81387Y-8.75805
X38.35387Y-8.76805
X33.27387Y-8.75805
M30