G04 Layer: TopLayer*
G04 EasyEDA Pro v2.2.46.11, 2026-04-08 09:24:06*
G04 Gerber Generator version 0.3*
G04 Scale: 100 percent, Rotated: No, Reflected: No*
G04 Dimensions in millimeters*
G04 Leading zeros omitted, absolute positions, 4 integers and 5 decimals*
G04 Generated by one-click*
%FSLAX45Y45*%
%MOMM*%
%ADD10C,2.2*%
%ADD11R,0.5X0.54*%
%ADD12R,1.5X1.0*%
%ADD13R,1.25001X0.7*%
%ADD14R,0.80648X0.86401*%
%ADD15R,0.86401X0.80648*%
%ADD16O,1.8058X2.59999*%
%ADD17O,1.8X2.59999*%
%ADD18R,1.8X2.59999*%
%ADD19R,3.19999X3.19999*%
%ADD20O,0.9X0.28001*%
%ADD21O,0.28001X0.9*%
%ADD22R,1.1X0.5*%
%ADD23R,1.1X0.3*%
%ADD24O,2.0X1.0*%
%ADD25O,1.8X1.0*%
%ADD26R,2.1X0.95001*%
%ADD27R,0.95001X2.1*%
%ADD28R,0.9X0.9*%
%ADD29C,0.61*%
%ADD30C,0.254*%
G75*


G04 Pad Start*
G54D10*
G01X3077401Y-4610100D03*
G01X3577400Y-4610100D03*
G54D11*
G01X2124812Y-3949700D03*
G01X2040788Y-3949700D03*
G54D12*
G01X7392695Y-4081805D03*
G01X7392695Y-4241800D03*
G01X7392695Y-4401795D03*
G01X7872705Y-4401795D03*
G01X7872705Y-4241800D03*
G01X7872705Y-4081805D03*
G01X7392695Y-2722905D03*
G01X7392695Y-2882900D03*
G01X7392695Y-3042895D03*
G01X7872705Y-3042895D03*
G01X7872705Y-2882900D03*
G01X7872705Y-2722905D03*
G01X7430795Y-1173505D03*
G01X7430795Y-1333500D03*
G01X7430795Y-1493495D03*
G01X7910805Y-1493495D03*
G01X7910805Y-1333500D03*
G01X7910805Y-1173505D03*
G54D13*
G01X3671900Y-3473704D03*
G01X3671900Y-3663696D03*
G01X3871900Y-3568700D03*
G54D14*
G01X6751587Y-4300297D03*
G01X6600914Y-4300297D03*
G54D15*
G01X2032000Y-2883764D03*
G01X2032000Y-3034436D03*
G01X1727200Y-2871064D03*
G01X1727200Y-3021736D03*
G01X3886200Y-2807564D03*
G01X3886200Y-2958236D03*
G54D14*
G01X3340964Y-2921000D03*
G01X3491636Y-2921000D03*
G54D17*
G01X3581387Y-875805D03*
G01X3835413Y-876795D03*
G54D18*
G01X3327387Y-875805D03*
G54D19*
G01X2641951Y-3345631D03*
G54D20*
G01X2391964Y-3495745D03*
G01X2391964Y-3445707D03*
G01X2391964Y-3395669D03*
G01X2391964Y-3345631D03*
G01X2391964Y-3295593D03*
G01X2391964Y-3245555D03*
G01X2391964Y-3195517D03*
G54D21*
G01X2491837Y-3095619D03*
G01X2541875Y-3095619D03*
G01X2591913Y-3095619D03*
G01X2641951Y-3095619D03*
G01X2691989Y-3095619D03*
G01X2742027Y-3095619D03*
G01X2792065Y-3095619D03*
G54D20*
G01X2891963Y-3195517D03*
G01X2891963Y-3245555D03*
G01X2891963Y-3295593D03*
G01X2891963Y-3345631D03*
G01X2891963Y-3395669D03*
G01X2891963Y-3445707D03*
G01X2891963Y-3495745D03*
G54D21*
G01X2792065Y-3595618D03*
G01X2742027Y-3595618D03*
G01X2691989Y-3595618D03*
G01X2641951Y-3595618D03*
G01X2591913Y-3595618D03*
G01X2541875Y-3595618D03*
G01X2491837Y-3595618D03*
G54D22*
G01X1075677Y-3748989D03*
G01X1075677Y-3669005D03*
G54D23*
G01X1075652Y-3604006D03*
G01X1075754Y-3553968D03*
G01X1075652Y-3504006D03*
G01X1075652Y-3453994D03*
G01X1075652Y-3404006D03*
G01X1075652Y-3353994D03*
G01X1075652Y-3304007D03*
G01X1075754Y-3253994D03*
G54D22*
G01X1075677Y-3188995D03*
G01X1075677Y-3109011D03*
G54D24*
G01X1020633Y-2996997D03*
G01X1020658Y-3861003D03*
G54D25*
G01X600644Y-3861003D03*
G01X600644Y-2996997D03*
G54D26*
G01X4522889Y-2236648D03*
G01X4522889Y-2363648D03*
G01X4522889Y-2490648D03*
G01X4522889Y-2617648D03*
G01X4522889Y-2744648D03*
G01X4522889Y-2871648D03*
G01X4522889Y-2998648D03*
G01X4522889Y-3125648D03*
G01X4522889Y-3252648D03*
G01X4522889Y-3379648D03*
G01X4522889Y-3506648D03*
G01X4522889Y-3633648D03*
G01X4522889Y-3760648D03*
G01X4522889Y-3887648D03*
G54D27*
G01X4851413Y-4037152D03*
G01X4978413Y-4037152D03*
G01X5105413Y-4037152D03*
G01X5232413Y-4037152D03*
G01X5359413Y-4037152D03*
G01X5486413Y-4037152D03*
G01X5613413Y-4037152D03*
G01X5740413Y-4037152D03*
G01X5867413Y-4037152D03*
G01X5994413Y-4037152D03*
G54D26*
G01X6322911Y-3887648D03*
G01X6322911Y-3760648D03*
G01X6322911Y-3633648D03*
G01X6322911Y-3506648D03*
G01X6322911Y-3379648D03*
G01X6322911Y-3252648D03*
G01X6322911Y-3125648D03*
G01X6322911Y-2998648D03*
G01X6322911Y-2871648D03*
G01X6322911Y-2744648D03*
G01X6322911Y-2617648D03*
G01X6322911Y-2490648D03*
G01X6322911Y-2363648D03*
G01X6322911Y-2236648D03*
G54D28*
G01X5272875Y-3004744D03*
G01X5132896Y-3004744D03*
G01X5412905Y-3004744D03*
G01X5412905Y-2864739D03*
G01X5272900Y-2864739D03*
G01X5132896Y-2864739D03*
G01X5132896Y-3144749D03*
G01X5272900Y-3144749D03*
G01X5412905Y-3144749D03*
G04 Pad End*

G04 Via Start*
G54D29*
G01X1308100Y-3404386D03*
G01X1308100Y-3504006D03*
G01X2298700Y-3873500D03*
G01X2463800Y-3797300D03*
G01X2209800Y-3213100D03*
G01X2209800Y-3289300D03*
G01X2209800Y-3429000D03*
G01X2209800Y-3543300D03*
G01X6019800Y-3733800D03*
G01X6019800Y-2768600D03*
G01X5981700Y-2628900D03*
G01X3302000Y-3505200D03*
G01X3822700Y-2400300D03*
G01X7061200Y-3073400D03*
G04 Via End*

G04 Track Start*
G54D30*
G01X3077401Y-4610100D02*
G01X3077401Y-3880954D01*
G01X3077401Y-4610100D02*
G01X3577400Y-4610100D01*
G01X3577400Y-4181182D01*
G01X2891963Y-3495745D01*
G01X3077401Y-3880954D02*
G01X2792065Y-3595618D01*
G01X2742027Y-3595618D02*
G01X2733889Y-3603755D01*
G01X2733889Y-3949700D01*
G01X2124812Y-3949700D01*
G01X2071912Y-3918577D02*
G01X2040788Y-3949700D01*
G01X2071912Y-3911143D02*
G01X2071912Y-3918577D01*
G01X2460337Y-3522718D02*
G01X2071912Y-3911143D01*
G01X2559230Y-3522718D02*
G01X2460337Y-3522718D01*
G01X1075677Y-3669005D02*
G01X1668636Y-3669005D01*
G01X2004232Y-4004600D01*
G01X2769489Y-3964446D02*
G01X2769489Y-3658411D01*
G01X2783927Y-3643973D01*
G01X2783927Y-3603755D01*
G01X2792065Y-3595618D01*
G01X2004232Y-4004600D02*
G01X2729335Y-4004600D01*
G01X2769489Y-3964446D01*
G01X1075677Y-3748989D02*
G01X1075677Y-3805984D01*
G01X1020658Y-3861003D01*
G01X600644Y-3861003D01*
G01X1075677Y-3109011D02*
G01X1075677Y-3052041D01*
G01X1020633Y-2996997D01*
G01X600644Y-2996997D02*
G01X1020633Y-2996997D01*
G01X1075677Y-3669005D02*
G01X1053579Y-3646906D01*
G01X1009095Y-3646906D01*
G01X1007059Y-3188995D02*
G01X1075677Y-3188995D01*
G01X1009095Y-3646906D02*
G01X901700Y-3539511D01*
G01X901700Y-3294355D01*
G01X1007059Y-3188995D01*
G01X1075652Y-3604006D02*
G01X1462430Y-3604006D01*
G01X2032000Y-3034436D01*
G01X1075652Y-3304007D02*
G01X1444930Y-3304007D01*
G01X1727200Y-3021736D01*
G01X1075677Y-3109011D02*
G01X1489253Y-3109011D01*
G01X1727200Y-2871064D01*
G01X2019300Y-2871064D01*
G01X2032000Y-2883764D01*
G01X2180083Y-2883764D01*
G01X2641951Y-3345631D01*
G01X1075652Y-3353994D02*
G01X1082764Y-3361106D01*
G01X1142208Y-3361106D01*
G01X1158552Y-3377450D01*
G01X1158552Y-3430563D02*
G01X1142208Y-3446906D01*
G01X1082739Y-3446906D01*
G01X1075652Y-3453994D01*
G01X1075652Y-3404006D02*
G01X1068565Y-3411094D01*
G01X1009095Y-3411094D01*
G01X992752Y-3427437D01*
G01X992752Y-3480550D01*
G01X1009095Y-3496894D01*
G01X1068539Y-3496894D01*
G01X1075652Y-3504006D01*
G01X1308100Y-3504006D01*
G01X1158552Y-3404386D02*
G01X1308100Y-3404386D01*
G01X1158552Y-3377450D02*
G01X1158552Y-3404386D01*
G01X1158552Y-3430563D01*
G01X2476500Y-3873500D02*
G01X2298700Y-3873500D01*
G01X2691989Y-3595618D02*
G01X2691989Y-3658011D01*
G01X2476500Y-3873500D01*
G01X2641951Y-3595618D02*
G01X2641951Y-3657702D01*
G01X2578553Y-3721100D01*
G01X2540000Y-3721100D02*
G01X2463800Y-3797300D01*
G01X2578553Y-3721100D02*
G01X2540000Y-3721100D01*
G01X2591913Y-3595618D02*
G01X2591913Y-3555400D01*
G01X2559230Y-3522718D01*
G01X2641951Y-3345631D02*
G01X2641951Y-3505362D01*
G01X2591913Y-3555400D01*
G01X2641951Y-3345631D02*
G01X3750934Y-2236648D01*
G01X4522889Y-2236648D01*
G01X2309471Y-3213100D02*
G01X2209800Y-3213100D01*
G01X2391964Y-3295593D02*
G01X2383826Y-3287455D01*
G01X2343608Y-3287455D01*
G01X2319064Y-3262911D01*
G01X2319064Y-3222693D01*
G01X2309471Y-3213100D01*
G01X2391964Y-3345631D02*
G01X2266131Y-3345631D01*
G01X2209800Y-3289300D01*
G01X2391964Y-3395669D02*
G01X2243131Y-3395669D01*
G01X2209800Y-3429000D01*
G01X2294371Y-3543300D02*
G01X2209800Y-3543300D01*
G01X2391964Y-3445707D02*
G01X2383826Y-3453844D01*
G01X2343608Y-3453844D01*
G01X2319064Y-3478389D01*
G01X2319064Y-3518607D01*
G01X2294371Y-3543300D01*
G01X6019800Y-3733800D02*
G01X6173648Y-3887648D01*
G01X6322911Y-3887648D01*
G01X3491636Y-2921000D02*
G01X3671900Y-3101264D01*
G01X3671900Y-3473704D01*
G01X3871900Y-3568700D02*
G01X3886200Y-3554400D01*
G01X3886200Y-2958236D01*
G01X4055301Y-2958236D01*
G01X4389989Y-2623548D01*
G01X4389989Y-2558591D01*
G01X4406333Y-2542247D01*
G01X4471290Y-2542247D01*
G01X4522889Y-2490648D01*
G01X3886200Y-2807564D02*
G01X4330116Y-2363648D01*
G01X4522889Y-2363648D01*
G01X4522889Y-1817306D02*
G01X3581387Y-875805D01*
G01X4522889Y-2363648D02*
G01X4574488Y-2312048D01*
G01X4639445Y-2312048D01*
G01X4655789Y-2295705D01*
G01X4655789Y-2177591D01*
G01X4522889Y-2044691D01*
G01X4522889Y-1817306D01*
G01X3327387Y-875805D02*
G01X4487289Y-2035707D01*
G01X4487289Y-2059437D01*
G01X4522889Y-2095037D01*
G01X4522889Y-2236648D01*
G01X6019800Y-2768600D02*
G01X6298959Y-2768600D01*
G01X6322911Y-2744648D01*
G01X6322911Y-2617648D02*
G01X6311659Y-2628900D01*
G01X5981700Y-2628900D01*
G01X3302000Y-3505200D02*
G01X3302000Y-2959964D01*
G01X3340964Y-2921000D01*
G01X2891963Y-3445707D02*
G01X3159917Y-3445707D01*
G01X3277810Y-3563600D01*
G01X3538200Y-3563600D01*
G01X3638296Y-3663696D02*
G01X3671900Y-3663696D01*
G01X3538200Y-3563600D02*
G01X3638296Y-3663696D01*
G01X3822700Y-2565008D02*
G01X3822700Y-2400300D01*
G01X3597843Y-3726596D02*
G01X3745957Y-3726596D01*
G01X3762301Y-3710253D01*
G01X3762301Y-3617139D01*
G01X3745957Y-3600796D01*
G01X3625742Y-3600796D01*
G01X3423413Y-2866243D02*
G01X3439756Y-2849900D01*
G01X3537808Y-2849900D01*
G01X3822700Y-2565008D01*
G01X2891963Y-3495745D02*
G01X2908238Y-3495745D01*
G01X3069738Y-3657245D01*
G01X3528492Y-3657245D01*
G01X3597843Y-3726596D01*
G01X3625742Y-3600796D02*
G01X3423413Y-3398467D01*
G01X3423413Y-2866243D01*
G01X7061200Y-3073400D02*
G01X7362190Y-3073400D01*
G01X7392695Y-3042895D01*
G01X7392695Y-2722905D02*
G01X7392695Y-1619851D01*
G01X7327895Y-1555051D01*
G01X7327895Y-1431938D01*
G01X7344239Y-1415595D01*
G01X7348701Y-1415595D01*
G01X7430795Y-1333500D01*
G01X7872705Y-2722905D02*
G01X7872705Y-1935404D01*
G01X7430795Y-1493495D01*
G01X7910805Y-1333500D02*
G01X7910805Y-1173505D01*
G01X7590790Y-1333500D02*
G01X7910805Y-1333500D01*
G01X7430795Y-1493495D02*
G01X7512890Y-1411400D01*
G01X7517352Y-1411400D01*
G01X7533695Y-1395057D01*
G01X7533695Y-1390595D01*
G01X7590790Y-1333500D01*
G01X7392695Y-3042895D02*
G01X7712710Y-3042895D01*
G01X7769805Y-2985800D01*
G01X7769805Y-2981338D01*
G01X7786148Y-2964995D01*
G01X7790610Y-2964995D01*
G01X7872705Y-2882900D01*
G01X7392695Y-2882900D02*
G01X7429500Y-2919705D01*
G01X7002800Y-3049210D02*
G01X7002800Y-3097590D01*
G01X7037010Y-3131800D01*
G01X7130991Y-3131800D01*
G01X7150100Y-3150909D01*
G01X7429500Y-2919705D02*
G01X7384210Y-2964995D01*
G01X7087015Y-2964995D01*
G01X7002800Y-3049210D01*
G01X7150100Y-3150909D02*
G01X7150100Y-4063845D01*
G01X7168061Y-4081805D01*
G01X7392695Y-4081805D01*
G01X7872705Y-4081805D02*
G01X7872705Y-4241800D01*
G01X7872705Y-4401795D02*
G01X7872705Y-4241800D01*
G01X7872705Y-4401795D02*
G01X7392695Y-4401795D01*
G01X7392695Y-4241800D02*
G01X7334198Y-4300297D01*
G01X6751587Y-4300297D01*
G01X6439467Y-3812247D02*
G01X6374510Y-3812247D01*
G01X6322911Y-3760648D01*
G01X6600914Y-4300297D02*
G01X6600914Y-3973694D01*
G01X6439467Y-3812247D01*
G01X7872705Y-4081805D02*
G01X7872705Y-3522904D01*
G01X7392695Y-3042895D01*
G01X7872705Y-2722905D02*
G01X7872705Y-2882900D01*
G01X4962068Y-875805D02*
G01X6322911Y-2236648D01*
G01X3327387Y-875805D02*
G01X3374652Y-875805D01*
G01X3532552Y-717905D01*
G01X4041158Y-875805D02*
G01X4962068Y-875805D01*
G01X3532552Y-717905D02*
G01X3883258Y-717905D01*
G01X4041158Y-875805D01*
G01X5816600Y-3071965D02*
G01X5816600Y-2260600D01*
G01X4851413Y-4037152D02*
G01X4903012Y-3985553D01*
G01X4903012Y-3920596D01*
G01X4919356Y-3904252D01*
G01X4984313Y-3904252D01*
G01X5816600Y-3071965D01*
G01X5816600Y-2260600D02*
G01X5834561Y-2242639D01*
G01X6316919Y-2242639D01*
G01X6322911Y-2236648D01*
G04 Track End*

M02*

